<svg width="28" height="18" viewBox="0 0 28 18" fill="none" xmlns="http://www.w3.org/2000/svg">
<path fill-rule="evenodd" clip-rule="evenodd" d="M3 1C3 0.447708 3.44775 0 4 0H27C27.5522 0 28 0.447708 28 1C28 1.55229 27.5522 2 27 2H4C3.44775 2 3 1.55229 3 1ZM0 9C0 8.44771 0.447754 8 1 8H27C27.5522 8 28 8.44771 28 9C28 9.55229 27.5522 10 27 10H1C0.447754 10 0 9.55229 0 9ZM12 16C11.4478 16 11 16.4477 11 17C11 17.5523 11.4478 18 12 18H27C27.5522 18 28 17.5523 28 17C28 16.4477 27.5522 16 27 16H12Z" fill="white"/>
</svg>
