<svg width="64" height="64" viewBox="0 0 64 64" fill="none" xmlns="http://www.w3.org/2000/svg">
<path d="M40 29.3333H56M19.7333 32L22.64 35.3333L27.7333 28.6667M53.3333 45.3333H40V18.6667H53.3333C54.0406 18.6667 54.7189 18.9476 55.219 19.4477C55.719 19.9478 56 20.6261 56 21.3333V42.6667C56 43.3739 55.719 44.0522 55.219 44.5523C54.7189 45.0524 54.0406 45.3333 53.3333 45.3333ZM40 53.3333V10.6667C40 9.95942 39.719 9.28115 39.219 8.78105C38.7189 8.28095 38.0406 8 37.3333 8H10.6667C9.95942 8 9.28115 8.28095 8.78105 8.78105C8.28095 9.28115 8 9.95942 8 10.6667V53.3333C8 54.0406 8.28095 54.7189 8.78105 55.219C9.28115 55.719 9.95942 56 10.6667 56H37.3333C38.0406 56 38.7189 55.719 39.219 55.219C39.719 54.7189 40 54.0406 40 53.3333ZM29.3333 8H18.6667L20 13.3333H28L29.3333 8Z" stroke="url(#paint0_linear_976_8382)" stroke-width="2" stroke-linecap="round" stroke-linejoin="round"/>
<defs>
<linearGradient id="paint0_linear_976_8382" x1="56" y1="8" x2="8" y2="56" gradientUnits="userSpaceOnUse">
<stop stop-color="#4D4DFF"/>
<stop offset="1" stop-color="#6CE8B1"/>
</linearGradient>
</defs>
</svg>
