<svg width="24" height="24" viewBox="0 0 24 24" fill="none" xmlns="http://www.w3.org/2000/svg">
<path fill-rule="evenodd" clip-rule="evenodd" d="M2.52044 5.75395C2.639 5.04569 3.25991 4.5 4.00004 4.5H20C20.7402 4.5 21.3611 5.04569 21.4796 5.75395L12 12.3897L2.52044 5.75395ZM1.50006 5.99212C1.49999 5.99679 1.49998 6.00146 1.50004 6.00612V18C1.50004 19.3761 2.6239 20.5 4.00004 20.5H20C21.3762 20.5 22.5 19.3761 22.5 18V6.00625M21.5 6.96033V18C21.5 18.8239 20.8239 19.5 20 19.5H4.00004C3.17619 19.5 2.50004 18.8239 2.50004 18V6.96033L11.7133 13.4096C11.8855 13.5301 12.1146 13.5301 12.2868 13.4096L21.5 6.96033ZM22.5 5.99198C22.4957 4.61949 21.3735 3.5 20 3.5H4.00004C2.62653 3.5 1.50433 4.61957 1.50006 5.99212" fill="white"/>
</svg>
