<svg width="64" height="64" viewBox="0 0 64 64" fill="none" xmlns="http://www.w3.org/2000/svg">
<path d="M24.0002 42.6667H40.0002M43.1736 35.4401C42.1737 36.427 41.3786 37.6017 40.8341 38.8968C40.2895 40.1919 40.0061 41.5818 40.0002 42.9867V50.6667C40.0002 51.374 39.7193 52.0522 39.2192 52.5523C38.7191 53.0524 38.0408 53.3334 37.3335 53.3334H26.6669C25.9596 53.3334 25.2814 53.0524 24.7813 52.5523C24.2812 52.0522 24.0002 51.374 24.0002 50.6667V43.0134C23.979 41.5623 23.6713 40.1298 23.0947 38.7981C22.518 37.4663 21.6839 36.2617 20.6402 35.2534C18.408 33.0025 16.8947 30.1392 16.2924 27.0268C15.6901 23.9144 16.026 20.6933 17.2573 17.7721C18.4887 14.8509 20.5601 12.3613 23.2086 10.6193C25.8572 8.87724 28.9635 7.96123 32.1335 7.98749C35.3035 8.01375 38.3943 8.98109 41.0136 10.7668C43.633 12.5525 45.6628 15.076 46.8456 18.0172C48.0284 20.9584 48.3108 24.1846 47.657 27.2866C47.0033 30.3886 45.4428 33.2264 43.1736 35.4401V35.4401ZM34.6669 53.3334H29.3335V56.0001H34.6669V53.3334Z" stroke="url(#paint0_linear_976_8381)" stroke-width="2" stroke-linecap="round" stroke-linejoin="round"/>
<defs>
<linearGradient id="paint0_linear_976_8381" x1="48.001" y1="7.98694" x2="3.68584" y2="37.5223" gradientUnits="userSpaceOnUse">
<stop stop-color="#4D4DFF"/>
<stop offset="1" stop-color="#6CE8B1"/>
</linearGradient>
</defs>
</svg>
