<svg width="64" height="64" viewBox="0 0 64 64" fill="none" xmlns="http://www.w3.org/2000/svg">
<path d="M32 8V13.3333M32 13.3333C31.4726 13.3333 30.957 13.4897 30.5185 13.7827C30.0799 14.0758 29.7382 14.4922 29.5363 14.9795C29.3345 15.4668 29.2817 16.003 29.3846 16.5202C29.4875 17.0375 29.7414 17.5127 30.1144 17.8856C30.4873 18.2586 30.9625 18.5125 31.4798 18.6154C31.997 18.7183 32.5332 18.6655 33.0205 18.4637C33.5078 18.2618 33.9242 17.9201 34.2173 17.4815C34.5103 17.043 34.6667 16.5274 34.6667 16M32 13.3333C32.7072 13.3333 33.3855 13.6143 33.8856 14.1144C34.3857 14.6145 34.6667 15.2928 34.6667 16M56 16H34.6667M29.3333 16H8M56 45.3333V48C56 50.1217 55.1571 52.1566 53.6569 53.6569C52.1566 55.1571 50.1217 56 48 56C45.8783 56 43.8434 55.1571 42.3431 53.6569C40.8429 52.1566 40 50.1217 40 48V45.3333M56 45.3333H40M56 45.3333L48 16L40 45.3333M24 45.3333V48C24 50.1217 23.1571 52.1566 21.6569 53.6569C20.1566 55.1571 18.1217 56 16 56C13.8783 56 11.8434 55.1571 10.3431 53.6569C8.84285 52.1566 8 50.1217 8 48V45.3333M24 45.3333H8M24 45.3333L16 16L8 45.3333" stroke="url(#paint0_linear_976_8383)" stroke-width="2" stroke-linecap="round" stroke-linejoin="round"/>
<defs>
<linearGradient id="paint0_linear_976_8383" x1="56" y1="8" x2="8" y2="56" gradientUnits="userSpaceOnUse">
<stop stop-color="#4D4DFF"/>
<stop offset="1" stop-color="#6CE8B1"/>
</linearGradient>
</defs>
</svg>
