<svg width="64" height="64" viewBox="0 0 64 64" fill="none" xmlns="http://www.w3.org/2000/svg">
<path d="M40 16H53.3333C54.0406 16 54.7189 16.281 55.219 16.781C55.7191 17.2811 56 17.9594 56 18.6667V26.6667C56 27.3739 55.7191 28.0522 55.219 28.5523C54.7189 29.0524 54.0406 29.3333 53.3333 29.3333H42.6667L32 34.6667V29.3333C31.2928 29.3333 30.6145 29.0524 30.1144 28.5523C29.6143 28.0522 29.3333 27.3739 29.3333 26.6667V21.3333M16 34.6667C14.9452 34.6667 13.914 34.9795 13.037 35.5655C12.1599 36.1515 11.4763 36.9845 11.0726 37.959C10.669 38.9336 10.5634 40.0059 10.7691 41.0405C10.9749 42.075 11.4829 43.0254 12.2288 43.7712C12.9746 44.5171 13.925 45.0251 14.9595 45.2309C15.9941 45.4366 17.0664 45.331 18.041 44.9274C19.0155 44.5237 19.8485 43.8401 20.4345 42.963C21.0205 42.086 21.3333 41.0548 21.3333 40C21.3333 38.5855 20.7714 37.229 19.7712 36.2288C18.771 35.2286 17.4145 34.6667 16 34.6667ZM24 53.3333C24 51.2116 23.1571 49.1768 21.6569 47.6765C20.1566 46.1762 18.1217 45.3333 16 45.3333C13.8783 45.3333 11.8434 46.1762 10.3431 47.6765C8.84286 49.1768 8 51.2116 8 53.3333V56H24V53.3333ZM40 18.6667V10.6667C40 9.95942 39.719 9.28115 39.219 8.78105C38.7189 8.28095 38.0406 8 37.3333 8H10.6667C9.95942 8 9.28115 8.28095 8.78105 8.78105C8.28095 9.28115 8 9.95942 8 10.6667V18.6667C8 19.3739 8.28095 20.0522 8.78105 20.5523C9.28115 21.0524 9.95942 21.3333 10.6667 21.3333H37.3333C38.0406 21.3333 38.7189 21.0524 39.219 20.5523C39.719 20.0522 40 19.3739 40 18.6667Z" stroke="url(#paint0_linear_977_8478)" stroke-width="2" stroke-linecap="round" stroke-linejoin="round"/>
<defs>
<linearGradient id="paint0_linear_977_8478" x1="56" y1="8" x2="8" y2="56" gradientUnits="userSpaceOnUse">
<stop stop-color="#4D4DFF"/>
<stop offset="1" stop-color="#6CE8B1"/>
</linearGradient>
</defs>
</svg>
