<svg width="64" height="64" viewBox="0 0 64 64" fill="none" xmlns="http://www.w3.org/2000/svg">
<path d="M24 40L40 24M25.2 25.3334H25.4667M38.5334 38.6667H38.8M53.92 24.88C53.12 22.4534 53.6534 19.3334 52.1867 17.3334C50.72 15.3334 47.5734 14.8267 45.5467 13.3334C43.52 11.84 42.1334 9.04002 39.7067 8.26669C37.28 7.49335 34.6667 8.96002 32 8.96002C29.3334 8.96002 26.6667 7.49335 24.2934 8.26669C21.92 9.04002 20.48 11.8934 18.4534 13.3334C16.4267 14.7734 13.3334 15.28 11.8134 17.3334C10.2934 19.3867 10.88 22.4534 10.08 24.88C9.28004 27.3067 7.04004 29.3334 7.04004 32C7.04004 34.6667 9.33337 36.7734 10.08 39.12C10.8267 41.4667 10.3467 44.6667 11.8134 46.6667C13.28 48.6667 16.4267 49.1734 18.4534 50.64C20.48 52.1067 21.8667 54.96 24.2934 55.7333C26.72 56.5067 29.3334 55.04 32 55.04C34.6667 55.04 37.3334 56.5067 39.7067 55.7333C42.08 54.96 43.52 52.1067 45.5467 50.64C47.5734 49.1734 50.72 48.72 52.1867 46.6667C53.6534 44.6134 53.12 41.5467 53.92 39.12C54.72 36.6934 56.96 34.6667 56.96 32C56.96 29.3334 54.6667 27.2267 53.92 24.88Z" stroke="url(#paint0_linear_977_8495)" stroke-width="2" stroke-linecap="round" stroke-linejoin="round"/>
<defs>
<linearGradient id="paint0_linear_977_8495" x1="56.96" y1="8.0415" x2="9.08316" y2="57.9197" gradientUnits="userSpaceOnUse">
<stop stop-color="#4D4DFF"/>
<stop offset="1" stop-color="#6CE8B1"/>
</linearGradient>
</defs>
</svg>
