<svg width="72" height="72" viewBox="0 0 72 72" fill="none" xmlns="http://www.w3.org/2000/svg">
<path d="M27 47C26.4477 47 26 47.4477 26 48C26 48.5523 26.4477 49 27 49V47ZM33 49C33.5523 49 34 48.5523 34 48C34 47.4477 33.5523 47 33 47V49ZM27 38C26.4477 38 26 38.4477 26 39C26 39.5523 26.4477 40 27 40V38ZM45 40C45.5523 40 46 39.5523 46 39C46 38.4477 45.5523 38 45 38V40ZM27 29C26.4477 29 26 29.4477 26 30C26 30.5523 26.4477 31 27 31V29ZM45 31C45.5523 31 46 30.5523 46 30C46 29.4477 45.5523 29 45 29V31ZM31 18V15H29V18H31ZM31 15C31 14.16 31.2602 12.8778 32.0115 11.8343C32.7261 10.8418 33.9259 10 36 10V8C33.2741 8 31.4739 9.1582 30.3885 10.6657C29.3398 12.1222 29 13.84 29 15H31ZM36 10C38.0741 10 39.2739 10.8418 39.9885 11.8343C40.7398 12.8778 41 14.16 41 15H43C43 13.84 42.6602 12.1222 41.6115 10.6657C40.5261 9.1582 38.7259 8 36 8V10ZM41 15V18H43V15H41ZM27 49H33V47H27V49ZM27 40H45V38H27V40ZM27 31H45V29H27V31ZM16 24C16 21.2386 18.2386 19 21 19V17C17.134 17 14 20.134 14 24H16ZM21 19H51V17H21V19ZM51 19C53.7615 19 56 21.2386 56 24H58C58 20.134 54.8661 17 51 17V19ZM56 24V57H58V24H56ZM56 57C56 59.7615 53.7615 62 51 62V64C54.8661 64 58 60.8661 58 57H56ZM51 62H21V64H51V62ZM21 62C18.2386 62 16 59.7615 16 57H14C14 60.8661 17.134 64 21 64V62ZM16 57V24H14V57H16Z" fill="url(#paint0_linear_913_9183)"/>
<defs>
<linearGradient id="paint0_linear_913_9183" x1="57" y1="9" x2="4.66154" y2="49.7077" gradientUnits="userSpaceOnUse">
<stop stop-color="#4D4DFF"/>
<stop offset="1" stop-color="#6CE8B1"/>
</linearGradient>
</defs>
</svg>
