<svg width="72" height="72" viewBox="0 0 72 72" fill="none" xmlns="http://www.w3.org/2000/svg">
<path d="M54.8321 36.5547C55.1384 36.0952 55.0142 35.4743 54.5547 35.1679C54.0952 34.8616 53.4743 34.9858 53.1679 35.4453L54.8321 36.5547ZM36 63L35.1679 63.5547C35.3534 63.8329 35.6656 64 36 64C36.3344 64 36.6466 63.8329 36.8321 63.5547L36 63ZM18.8321 35.4453C18.5257 34.9858 17.9048 34.8616 17.4453 35.1679C16.9858 35.4743 16.8616 36.0952 17.1679 36.5547L18.8321 35.4453ZM53.1679 36.5547C53.4743 37.0142 54.0952 37.1384 54.5547 36.8321C55.0142 36.5257 55.1384 35.9048 54.8321 35.4453L53.1679 36.5547ZM36 9L36.8321 8.4453C36.6466 8.1671 36.3344 8 36 8C35.6656 8 35.3534 8.1671 35.1679 8.4453L36 9ZM17.1679 35.4453C16.8616 35.9048 16.9858 36.5257 17.4453 36.8321C17.9048 37.1384 18.5257 37.0142 18.8321 36.5547L17.1679 35.4453ZM54.3162 36.9487C54.8402 36.774 55.1233 36.2077 54.9487 35.6838C54.774 35.1598 54.2077 34.8767 53.6838 35.0513L54.3162 36.9487ZM36 42L35.6838 42.9487C35.889 43.0171 36.111 43.0171 36.3162 42.9487L36 42ZM18.3162 35.0513C17.7923 34.8767 17.226 35.1598 17.0513 35.6838C16.8767 36.2077 17.1598 36.774 17.6838 36.9487L18.3162 35.0513ZM53.1679 35.4453L35.1679 62.4453L36.8321 63.5547L54.8321 36.5547L53.1679 35.4453ZM36.8321 62.4453L18.8321 35.4453L17.1679 36.5547L35.1679 63.5547L36.8321 62.4453ZM54.8321 35.4453L36.8321 8.4453L35.1679 9.5547L53.1679 36.5547L54.8321 35.4453ZM35.1679 8.4453L17.1679 35.4453L18.8321 36.5547L36.8321 9.5547L35.1679 8.4453ZM53.6838 35.0513L35.6838 41.0513L36.3162 42.9487L54.3162 36.9487L53.6838 35.0513ZM36.3162 41.0513L18.3162 35.0513L17.6838 36.9487L35.6838 42.9487L36.3162 41.0513Z" fill="url(#paint0_linear_913_9182)"/>
<defs>
<linearGradient id="paint0_linear_913_9182" x1="54" y1="9" x2="4.15385" y2="42.2308" gradientUnits="userSpaceOnUse">
<stop stop-color="#4D4DFF"/>
<stop offset="1" stop-color="#6CE8B1"/>
</linearGradient>
</defs>
</svg>
