<svg width="601" height="123" viewBox="0 0 601 123" fill="none" xmlns="http://www.w3.org/2000/svg">
<path d="M79.725 117.35C92.025 113.35 102.325 105.05 102.325 89.65C102.325 80.85 98.425 74.15 92.625 69.35C87.125 64.85 79.925 61.95 72.725 60.55C70.225 60.05 67.725 59.75 65.225 59.55V59.05C80.225 56.75 98.225 49.05 98.225 31.05C98.225 22.45 95.025 16.35 90.125 12.15C80.525 4.04999 64.325 2.75 51.625 2.75H0.125V7.14999H16.725V115.65H0.125V120.05H38.225C50.525 120.15 66.925 121.55 79.725 117.35ZM37.625 7.25C51.825 7.55 63.625 5.64999 70.125 12.05C73.625 15.45 75.625 21.25 75.625 31.15C75.625 51.15 66.525 57.35 53.225 57.35H37.625V7.25ZM37.625 61.65H54.225C61.925 61.75 67.425 63.65 71.225 67.15C76.325 71.85 78.425 79.25 78.425 88.65C78.425 100.95 75.025 115.65 59.725 115.65H37.625V61.65Z" fill="white"/>
<path d="M143.425 7.25H159.625V2.84998H106.325V7.25H122.525V115.75H106.325V120.15H159.625V115.75H143.425V7.25Z" fill="white"/>
<path d="M489.225 7.25H506.025V2.84998H467.625V7.25H483.625L483.825 79.45V81.55L429.725 2.84998H387.925V7.25H403.925V115.75H388.725V120.15H425.925V115.75H409.525V10.75L484.025 122.35H489.225V7.25Z" fill="white"/>
<path d="M600.125 82.35H595.525C591.225 104.45 586.025 115.75 560.825 115.75H530.425L600.025 7.75V2.84998H511.725L511.625 34.45H516.625C519.725 17.55 527.825 10.95 538.425 8.44998C543.625 7.24998 550.025 7.25 556.125 7.25H575.525L574.125 9.44998L505.525 115.35V120.05H600.125V82.35Z" fill="white"/>
<path d="M385.725 115.75H370.025L326.525 0.25H321.425L276.925 115.75H262.925L262.725 82.85V80.65H257.325C256.625 100.85 248.725 115.75 226.425 115.75H204.625V7.25H222.925V2.84998H167.225V7.25H183.825V115.75H167.225V120.15H300.725V115.75H282.625L294.125 84.65H334.225L335.025 86.85L346.525 115.75H328.025V120.15H385.725V115.75ZM314.825 31.25L332.325 80.25H296.025L314.825 31.25Z" fill="white"/>
</svg>
