<svg width="285" height="44" viewBox="0 0 285 44" fill="none" xmlns="http://www.w3.org/2000/svg">
<path d="M24.0667 1.06572V17.1164H11.358V1.06572H0.200195V42.9519H11.358V26.7226H24.0667V42.9518H35.2245V1.06572H24.0667ZM53.8995 43.6681C63.6254 43.6681 69.4726 38.7156 69.4726 30.4817C69.4726 24.6936 66.8473 21.1736 60.463 18.4883L54.7943 16.1016C52.05 14.9082 51.2147 14.073 51.2147 12.522C51.2147 10.672 53.0643 9.41913 55.9281 9.41913C60.4034 9.41913 64.043 11.6268 65.1763 11.6268C65.4562 11.6442 65.7336 11.5647 65.9618 11.4018C66.19 11.2389 66.3552 11.0024 66.4297 10.7321L68.9355 3.57194C64.8428 1.45042 60.2995 0.345303 55.6896 0.34999C46.3813 0.34999 40.2955 5.30194 40.2955 12.6411C40.2955 18.3692 42.8613 22.1283 48.649 24.6936L55.3315 27.677C57.5392 28.6317 58.4344 29.646 58.4344 31.1379C58.4344 33.4051 56.7634 34.5389 53.4819 34.5389C48.3504 34.5389 43.9351 32.2118 42.9803 32.2118C42.6723 32.2084 42.3717 32.3056 42.124 32.4887C41.8762 32.6717 41.6951 32.9306 41.6079 33.2261L39.5793 40.6847C44.1164 42.5909 48.9787 43.6038 53.8995 43.6681ZM75.0213 42.9519H101.871V34.897C101.871 33.8227 101.394 33.3456 100.32 33.3456H86.1786V1.06572H75.0213L75.0213 42.9519ZM121.561 43.6681C133.195 43.6681 139.003 37.5622 138.983 25.3503V1.06572H127.826V24.336C127.826 31.1975 126.095 33.8227 121.561 33.8227C117.026 33.8227 115.296 31.1975 115.296 24.336V1.06572H104.138V25.3503C104.138 37.5818 109.945 43.6878 121.561 43.6681Z" fill="white"/>
<path d="M150.361 42.9519H160.142C160.551 42.9519 160.823 42.7883 160.823 42.2981V40.6363C160.833 40.5457 160.821 40.4541 160.79 40.3685C160.759 40.2829 160.709 40.2056 160.643 40.1425C160.577 40.0794 160.498 40.0321 160.411 40.0043C160.324 39.9765 160.232 39.9689 160.142 39.9821H153.167V24.8068C153.167 24.2619 152.977 24.0713 152.459 24.0713H150.252C149.816 24.0713 149.598 24.3166 149.598 24.7797V42.1892C149.598 42.7883 149.87 42.9519 150.361 42.9519ZM167.362 43.279C168.975 43.2398 170.525 42.6428 171.748 41.5896L171.775 42.407C171.803 42.7883 171.993 42.9519 172.429 42.9519H174.255C174.745 42.9519 174.936 42.7341 174.936 42.2434V30.1739C174.936 29.7384 174.718 29.5477 174.227 29.5477H172.266C171.803 29.5477 171.585 29.7384 171.585 30.1739V39.0287C170.69 39.8257 169.563 40.313 168.37 40.4181C166.953 40.4181 166.326 39.6283 166.326 37.7483V30.174C166.326 29.7384 166.136 29.5478 165.645 29.5478H163.711C163.221 29.5478 162.975 29.7655 162.975 30.174V38.3203C162.975 41.5625 164.474 43.279 167.362 43.279ZM187.223 40.4999H181.338L187.332 31.8086C187.524 31.5496 187.62 31.232 187.604 30.91V30.1198C187.604 29.8202 187.495 29.5478 186.978 29.5478H178.232C177.878 29.5478 177.714 29.7655 177.714 30.1198V31.2914C177.714 31.8634 177.823 31.9998 178.341 31.9998H183.382L177.497 40.6635C177.292 40.9268 177.195 41.2576 177.224 41.5897V42.2981C177.211 42.387 177.219 42.4776 177.248 42.5628C177.276 42.648 177.324 42.7255 177.387 42.7889C177.451 42.8524 177.528 42.9002 177.613 42.9285C177.698 42.9568 177.789 42.9648 177.878 42.9519H187.25C187.32 42.9589 187.39 42.9503 187.456 42.9267C187.522 42.9031 187.582 42.8652 187.632 42.8157C187.681 42.7661 187.719 42.7062 187.743 42.6402C187.766 42.5742 187.775 42.5038 187.768 42.4341V40.963C187.768 40.6087 187.55 40.4999 187.223 40.4999ZM195.751 43.279C197.346 43.2972 198.929 43.0009 200.409 42.407C200.491 42.3823 200.566 42.3407 200.63 42.285C200.695 42.2292 200.747 42.1606 200.783 42.0835C200.818 42.0063 200.838 41.9225 200.839 41.8374C200.841 41.7523 200.824 41.6679 200.791 41.5896L200.409 40.1732C200.328 39.8461 200.11 39.7643 199.701 39.9279C198.631 40.3778 197.483 40.6093 196.323 40.6087C195.324 40.647 194.351 40.2915 193.612 39.6189C192.873 38.9463 192.428 38.0104 192.372 37.0127H200.464C201.173 37.0127 201.363 36.8492 201.363 36.1954V35.7865C201.363 31.7274 199.211 29.2207 195.696 29.2207C191.609 29.2207 188.858 32.0269 188.858 36.1954C188.858 40.5816 191.473 43.279 195.751 43.279ZM192.427 34.8332C192.457 34.0289 192.792 33.2663 193.364 32.6997C193.935 32.1332 194.701 31.805 195.505 31.7816C195.858 31.7802 196.208 31.852 196.532 31.9923C196.856 32.1326 197.147 32.3385 197.388 32.5969C197.628 32.8554 197.813 33.1608 197.93 33.4941C198.046 33.8273 198.093 34.1811 198.066 34.5331V34.8332H192.427ZM204.605 42.9519H206.621C207.057 42.9519 207.275 42.7341 207.275 42.271V33.498C207.599 33.1059 208.001 32.7867 208.457 32.5613C208.912 32.336 209.41 32.2096 209.918 32.1905C210.136 32.1905 210.381 32.2176 210.681 32.2447C211.008 32.2994 211.171 32.1905 211.226 31.8362L211.471 29.8744C211.492 29.7943 211.494 29.71 211.475 29.6292C211.456 29.5484 211.417 29.4736 211.362 29.4113C211.087 29.2625 210.775 29.1963 210.463 29.2207C209.79 29.2346 209.131 29.4163 208.545 29.7494C207.96 30.0824 207.467 30.5562 207.112 31.1278L207.085 30.1469C207.085 29.7109 206.866 29.5479 206.403 29.5479H204.633C204.142 29.5479 203.924 29.7385 203.924 30.2558V42.271C203.909 42.3638 203.917 42.4587 203.946 42.5481C203.975 42.6375 204.024 42.7187 204.091 42.7851C204.157 42.8515 204.239 42.9013 204.328 42.9303C204.417 42.9593 204.512 42.9667 204.605 42.9519ZM214.031 42.9519H216.048C216.538 42.9519 216.729 42.7341 216.729 42.271V33.4433C217.636 32.6545 218.772 32.1771 219.971 32.0811C221.415 32.0811 222.069 32.8985 222.069 34.7243V42.2434C222.069 42.7341 222.287 42.9519 222.75 42.9519H224.766C225.229 42.9519 225.42 42.7341 225.42 42.2434V34.1518C225.42 30.91 223.921 29.2207 221.033 29.2207C219.393 29.2492 217.814 29.8464 216.565 30.91L216.538 30.1198C216.511 29.7109 216.293 29.5478 215.857 29.5478H214.059C213.966 29.533 213.871 29.5404 213.782 29.5694C213.692 29.5983 213.611 29.6481 213.545 29.7145C213.478 29.7809 213.428 29.8621 213.399 29.9515C213.37 30.0409 213.363 30.1359 213.378 30.2287V42.2981C213.37 42.386 213.381 42.4745 213.411 42.5575C213.441 42.6404 213.489 42.7158 213.551 42.7782C213.614 42.8405 213.689 42.8884 213.772 42.9185C213.855 42.9485 213.943 42.9599 214.031 42.9519Z" fill="white"/>
<path d="M150.361 19.9463H152.486C152.949 19.9463 153.167 19.7557 153.167 19.2655V11.6369H160.905V19.2655C160.905 19.7557 161.123 19.9463 161.64 19.9463H163.82C164.283 19.9463 164.474 19.7557 164.474 19.2655V1.74707C164.474 1.22928 164.256 1.06572 163.82 1.06572H161.64C161.177 1.06572 160.905 1.25638 160.905 1.74707V8.69427H153.167V1.74707C153.167 1.22928 152.922 1.06572 152.486 1.06572H150.361C149.925 1.06572 149.598 1.25638 149.598 1.74707V19.2655C149.598 19.7557 149.843 19.9463 150.361 19.9463ZM173.628 20.2735C177.688 20.2735 180.358 17.4672 180.358 13.2169C180.358 8.80312 177.933 6.2151 173.792 6.2151C169.705 6.2151 167.035 8.96668 167.035 13.1898C167.035 17.6308 169.487 20.2735 173.628 20.2735ZM173.656 17.6579C171.612 17.6579 170.495 16.0503 170.495 13.1352C170.495 10.4107 171.694 8.83068 173.765 8.83068C175.781 8.83068 176.897 10.3836 176.897 13.2169C176.897 16.0232 175.699 17.6579 173.656 17.6579ZM188.994 20.2735C190.374 20.3088 191.743 20.0293 192.999 19.4561C193.407 19.2655 193.462 19.1019 193.326 18.6388L192.944 17.2765C192.863 17.0312 192.672 16.9494 192.345 17.0583C191.44 17.4777 190.454 17.6917 189.457 17.685C187.196 17.685 185.861 16.0232 185.861 13.1898C185.861 10.4378 187.25 8.83068 189.593 8.83068C190.509 8.82254 191.413 9.02764 192.236 9.42973C192.563 9.6204 192.781 9.5391 192.863 9.18487L193.217 7.71326C193.299 7.27775 193.244 7.11422 192.944 6.97771C191.775 6.46941 190.514 6.20969 189.239 6.21503C185.043 6.21503 182.401 8.9942 182.401 13.3534C182.401 17.7125 184.826 20.2735 188.994 20.2735ZM196.377 19.9463H198.502C198.883 19.9463 199.102 19.7286 199.102 19.2655V10.4378C200.037 9.642 201.201 9.16484 202.425 9.07556C204.088 9.07556 204.496 10.22 204.496 11.7187V19.2655C204.496 19.7557 204.714 19.9463 205.204 19.9463H207.139C207.629 19.9463 207.847 19.7557 207.847 19.2655V11.1462C207.847 8.14933 206.567 6.2151 203.461 6.2151C201.874 6.25057 200.343 6.80562 199.102 7.7951V1.6924C199.102 1.20218 198.856 1.06572 198.42 1.06572H196.486C196.05 1.06572 195.751 1.22928 195.751 1.6924V19.2926C195.737 19.3791 195.744 19.4677 195.77 19.5513C195.796 19.6349 195.841 19.7113 195.902 19.7745C195.963 19.8378 196.037 19.8862 196.12 19.916C196.202 19.9458 196.29 19.9562 196.377 19.9463ZM214.794 20.2735C218.064 20.2735 220.216 18.5841 220.216 15.9961C220.206 15.2062 219.948 14.4395 219.479 13.8041C219.009 13.1687 218.352 12.6965 217.601 12.4543L215.094 11.4463C214.141 11.0645 213.786 10.6831 213.786 10.0294C213.786 9.26671 214.468 8.74892 215.476 8.74892C216.513 8.71853 217.542 8.94301 218.473 9.40268C218.528 9.44632 218.593 9.47498 218.663 9.48586C218.732 9.49675 218.803 9.48949 218.869 9.4648C218.935 9.44011 218.993 9.39882 219.038 9.34495C219.083 9.29108 219.114 9.22644 219.126 9.15734L219.617 7.68622C219.726 7.3049 219.671 7.16842 219.317 7.00535C218.052 6.46352 216.689 6.18541 215.312 6.18802C212.397 6.18802 210.353 7.7951 210.353 10.0841C210.359 10.9248 210.635 11.7415 211.14 12.4135C211.646 13.0855 212.354 13.5774 213.16 13.8165L215.339 14.6339C216.566 15.097 217.002 15.533 217.002 16.2685C217.002 17.1677 216.184 17.7397 214.876 17.7397C213.683 17.6952 212.513 17.398 211.443 16.8676C211.117 16.7316 210.898 16.8134 210.789 17.14L210.299 18.6658C210.271 18.7279 210.256 18.7953 210.256 18.8636C210.256 18.9319 210.271 18.9993 210.299 19.0614C210.328 19.1235 210.369 19.1787 210.421 19.2232C210.472 19.2678 210.533 19.3007 210.599 19.3196C211.909 19.9462 213.342 20.2721 214.794 20.2735ZM228.526 20.2735C229.905 20.3088 231.275 20.0293 232.531 19.4561C232.939 19.2655 232.994 19.1019 232.858 18.6388L232.476 17.2765C232.395 17.0312 232.204 16.9494 231.877 17.0583C230.972 17.4778 229.986 17.6918 228.989 17.685C226.727 17.685 225.393 16.0232 225.393 13.1898C225.393 10.4378 226.782 8.83068 229.125 8.83068C230.041 8.82258 230.945 9.02767 231.768 9.42973C232.095 9.6204 232.313 9.5391 232.395 9.18487L232.749 7.71326C232.831 7.27775 232.776 7.11422 232.476 6.97771C231.307 6.46946 230.046 6.20974 228.771 6.21503C224.575 6.21503 221.933 8.9942 221.933 13.3534C221.933 17.7125 224.357 20.2735 228.526 20.2735ZM235.909 19.9463H238.034C238.416 19.9463 238.633 19.7286 238.633 19.2655V10.4378C239.568 9.64204 240.733 9.16489 241.957 9.07556C243.619 9.07556 244.028 10.22 244.028 11.7187V19.2655C244.028 19.7557 244.246 19.9463 244.736 19.9463H246.671C247.161 19.9463 247.379 19.7557 247.379 19.2655V11.1462C247.379 8.14933 246.099 6.2151 242.993 6.2151C241.406 6.25057 239.874 6.80562 238.633 7.7951V1.6924C238.633 1.20218 238.388 1.06572 237.952 1.06572H236.018C235.582 1.06572 235.282 1.22928 235.282 1.6924V19.2926C235.269 19.3791 235.275 19.4676 235.302 19.5512C235.328 19.6348 235.373 19.7112 235.434 19.7745C235.494 19.8377 235.569 19.8861 235.651 19.9159C235.734 19.9457 235.822 19.9561 235.909 19.9463ZM254.762 20.2735C256.376 20.2343 257.926 19.6373 259.149 18.5841L259.176 19.4014C259.203 19.7828 259.394 19.9463 259.83 19.9463H261.655C262.146 19.9463 262.336 19.7286 262.336 19.2379V7.16842C262.336 6.7329 262.119 6.54224 261.628 6.54224H259.667C259.203 6.54224 258.985 6.7329 258.985 7.16842V16.0232C258.091 16.8202 256.964 17.3075 255.77 17.4125C254.354 17.4125 253.727 16.6228 253.727 14.7428V7.16842C253.727 6.7329 253.536 6.54224 253.046 6.54224H251.112C250.621 6.54224 250.376 6.75999 250.376 7.16842V15.3147C250.376 18.557 251.874 20.2735 254.762 20.2735ZM266.232 19.9463H268.357C268.739 19.9463 268.957 19.7286 268.957 19.2655V1.6924C268.957 1.20218 268.711 1.06572 268.275 1.06572H266.341C265.905 1.06572 265.606 1.22928 265.606 1.6924V19.2926C265.592 19.3791 265.599 19.4677 265.625 19.5512C265.651 19.6348 265.697 19.7112 265.757 19.7745C265.818 19.8377 265.892 19.8861 265.975 19.9159C266.057 19.9457 266.145 19.9561 266.232 19.9463ZM278.438 20.2735C280.033 20.2917 281.616 19.9953 283.097 19.4014C283.178 19.3768 283.253 19.3352 283.318 19.2794C283.382 19.2237 283.434 19.155 283.47 19.0779C283.506 19.0008 283.525 18.917 283.526 18.8319C283.528 18.7468 283.511 18.6624 283.478 18.5841L283.097 17.1677C283.015 16.8405 282.797 16.7588 282.388 16.9223C281.319 17.3722 280.17 17.6037 279.01 17.6032C278.011 17.6414 277.038 17.2859 276.299 16.6133C275.56 15.9407 275.115 15.0048 275.059 14.0072H283.151C283.86 14.0072 284.05 13.8436 284.05 13.1898V12.7809C284.05 8.72182 281.898 6.2151 278.383 6.2151C274.296 6.2151 271.545 9.02136 271.545 13.1898C271.545 17.5761 274.16 20.2735 278.438 20.2735ZM275.114 11.8276C275.144 11.0233 275.479 10.2607 276.051 9.6941C276.622 9.12751 277.388 8.79933 278.193 8.77602C278.546 8.77467 278.895 8.84642 279.219 8.98674C279.543 9.12707 279.835 9.33294 280.075 9.5914C280.316 9.84985 280.5 10.1553 280.617 10.4885C280.734 10.8217 280.78 11.1755 280.753 11.5276V11.8276H275.114Z" fill="white"/>
</svg>
