<svg width="108" height="32" viewBox="0 0 108 32" fill="none" xmlns="http://www.w3.org/2000/svg">
<path d="M86.4908 24.0827C87.1561 24.0827 87.5697 23.8309 87.9293 23.4893V20.6482H87.246C85.8435 20.6482 85.2321 21.0079 85.2321 22.4823C85.2141 23.6331 85.6097 24.0827 86.4908 24.0827Z" fill="white"/>
<path d="M99.6173 24.0467C100.966 24.0467 101.361 22.9319 101.361 20.0189C101.361 17.3396 100.948 16.4046 99.7072 16.4046C99.0239 16.4046 98.4665 16.6563 98.0349 17.016V23.3994C98.3766 23.7051 98.952 24.0467 99.6173 24.0467Z" fill="white"/>
<path fill-rule="evenodd" clip-rule="evenodd" d="M102.836 0.0414731L70.9548 3.38602C68.7071 3.72767 68.0597 5.11224 68.0597 7.7735V24.2265C68.0597 26.8878 68.7071 28.2544 70.9548 28.614L102.836 31.9585C106.594 32.3182 107.889 30.3042 107.889 27.2654V4.73463C107.889 1.69577 106.594 -0.318156 102.836 0.0414731ZM76.3133 26.2405C73.2925 26.2405 71.2246 24.4603 71.2246 20.0548C71.2246 15.3797 73.5442 13.9052 76.4752 13.9052C77.9856 13.9052 79.2263 14.2468 80.0535 14.9661V17.8072H77.8957L77.5541 16.1349C77.3563 15.991 76.9427 15.9371 76.5651 15.9371C75.3783 15.9371 74.677 16.5485 74.677 19.8211C74.677 23.3994 75.4862 23.9568 77.0326 23.9568C77.9676 23.9568 78.7588 23.6152 79.4781 23.1297L80.3412 24.9098C79.4421 25.737 78.0575 26.2405 76.3133 26.2405ZM92.2629 24.1186L92.4067 25.719C91.9932 25.9707 91.2559 26.2405 90.3568 26.2405C89.2959 26.2405 88.5227 25.9348 88.1991 24.9818C87.5338 25.665 86.8864 26.2405 85.376 26.2405C83.434 26.2405 82.0135 25.1795 82.0135 22.6621C82.0135 20.0189 83.5419 18.922 87.318 18.922H87.9293V18.3466C87.9293 17.0879 87.6237 16.4945 86.329 16.4945C85.1782 16.4945 84.2252 16.8182 83.1643 17.3396L82.2472 15.2718C83.5239 14.4087 85.1063 13.8872 87.0123 13.8872C89.7095 13.8872 91.166 14.8942 91.166 17.7352V23.1656C91.166 23.9748 91.2919 24.1366 92.2629 24.1186ZM94.7983 25.9527V11.3518L93.5216 11.0282V9.17607H98.0349V15.3976C98.6283 14.7503 99.6892 13.9232 101.056 13.9232C103.142 13.9232 104.832 15.2538 104.832 19.8391C104.832 25.1795 103.142 26.2584 100.696 26.2584C99.3476 26.2584 98.2867 25.5392 97.6034 24.784L97.2797 25.9527H94.7983Z" fill="white"/>
<path d="M10.3213 15.5594C9.94374 14.4805 9.04466 13.9051 7.76798 13.9051C6.40139 13.9051 5.50232 14.4985 4.38747 15.5235L4.08179 14.2108H0V16.1528L1.27668 16.4765V24.0646L0 24.2984V25.9527H5.7181V24.2984L4.53132 24.0646V17.1778C5.07077 16.8001 5.59223 16.5664 6.16763 16.5664C6.99478 16.5664 7.2645 17.0519 7.2645 18.2207V25.9527H11.6879V24.2984L10.5191 24.0646V17.1778C11.0226 16.8001 11.5441 16.5664 12.1195 16.5664C12.9287 16.5664 13.2343 17.0519 13.2343 18.2207V25.9527H17.7477V24.3883L16.471 24.1546V17.0879C16.471 15.02 15.518 13.9051 13.7378 13.9051C12.3892 13.9051 11.4362 14.4985 10.3213 15.5594Z" fill="white"/>
<path fill-rule="evenodd" clip-rule="evenodd" d="M19.1682 20.0188C19.1682 24.4243 21.1102 26.2404 24.3469 26.2404C27.5835 26.2404 29.5435 24.5322 29.5255 20.0728C29.5255 15.6673 27.5835 13.8872 24.3469 13.8872C21.1102 13.8872 19.1682 15.6134 19.1682 20.0188ZM26.0731 20.0008C26.0731 23.1656 25.7314 24.2804 24.3828 24.2804C23.0162 24.2804 22.6566 23.1656 22.6566 20.0728C22.6566 17.0159 22.9803 15.937 24.3469 15.937C25.7135 15.937 26.0731 17.0159 26.0731 20.0008Z" fill="white"/>
<path d="M38.5522 18.1847V25.9707H43.0835V24.3164L41.8248 24.0826V17.1058C41.8248 15.038 40.8718 13.9231 39.0916 13.9231C37.6352 13.9231 36.6462 14.4985 35.5313 15.5235L35.2256 14.2108H31.1439V16.1528L32.4205 16.4765V24.0646L31.1439 24.2984V25.9527H36.8979V24.2984L35.6752 24.0646V17.2137C36.1966 16.8541 36.808 16.5484 37.4553 16.5484C38.2825 16.5484 38.5522 17.0159 38.5522 18.1847Z" fill="white"/>
<path fill-rule="evenodd" clip-rule="evenodd" d="M44.4861 20.0548C44.4861 24.4782 46.3202 26.2404 49.9165 26.2404C51.7506 26.2404 53.0093 25.7369 54.1601 24.8738L53.297 23.0397C52.308 23.6331 51.6427 23.9568 50.402 23.9568C48.5319 23.9568 47.9745 23.0757 47.9565 20.9359H54.214V19.6232C54.214 15.3976 52.5598 13.9051 49.5748 13.9051C46.3741 13.9051 44.4861 15.7752 44.4861 20.0548ZM47.9565 18.9759C48.0644 16.4585 48.5858 15.8651 49.5928 15.8651C50.7256 15.8651 51.0493 16.4945 51.0313 18.9759H47.9565Z" fill="white"/>
<path d="M62.3776 16.0809L63.4026 16.2427L62.0719 20.9718C61.8202 21.8709 61.6044 22.6981 61.4965 23.6151H61.4785C61.3707 22.6801 61.2088 21.8529 60.9571 20.9359L59.6444 16.2607L60.7233 16.0809V14.1928H55.4008V16.1348L56.3179 16.2967L59.4826 25.9347H60.3277C59.8422 27.2653 58.9252 28.0385 56.6775 28.3802L57.4327 30.6459C60.058 30.1604 61.6763 29.2433 62.7552 25.9167L65.902 16.3146L66.819 16.1348V14.1928H62.3776V16.0809Z" fill="white"/>
</svg>
