<svg width="90" height="32" viewBox="0 0 90 32" fill="none" xmlns="http://www.w3.org/2000/svg">
<path fill-rule="evenodd" clip-rule="evenodd" d="M20.9323 3.26812C20.9323 3.26812 21.8619 3.27089 23.0734 3.44557C25.0533 3.72931 25.2744 4.90772 25.3668 5.7839C25.5834 7.32646 25.6803 9.66849 25.6803 13.3802V23.3546L7.24986 1.15253H0V3.25056C0 3.25056 2.20912 3.28475 3.22397 4.01398C5.09601 5.35967 4.92747 6.63975 4.92747 9.22762V19.373C4.92747 22.7447 4.83958 25.3122 4.65836 27.2161C4.55597 28.2457 4.24154 29.0729 3.19769 29.4898C2.32057 29.8391 0.676871 29.8585 0.676871 29.8585V31.9695H12.219V29.8604C12.219 29.8604 10.3452 29.8216 9.36836 29.4546C8.24024 29.0304 7.98109 28.2088 7.87598 27.1246C7.69567 25.3445 7.60687 22.8103 7.60687 19.373V8.85793L26.3499 32H28.3597V13.3802C28.3597 9.38567 28.4367 7.14161 28.6288 5.62493C28.6986 4.86613 28.994 4.06204 29.7805 3.7136C30.7899 3.26627 32.4282 3.2635 32.4282 3.2635V1.15253H20.9323V3.26812ZM55.9981 27.8954C54.8003 29.2162 51.5971 29.4667 46.4794 29.4667C43.9767 29.4667 42.2641 29.4075 40.8415 29.2689L59.9443 2.25607L59.4024 1.15253H40.7065C39.022 1.15253 39.022 0.864165 38.5617 0H36.8319C36.6833 4.14245 36.2375 9.26459 36.2375 9.26459L38.3071 9.33853C38.3071 9.33853 38.7311 7.48266 39.5068 5.8754C40.4546 3.91416 40.9031 3.66462 45.7255 3.65445H53.3885L34.0248 30.8253L34.6219 31.9695H58.7872C59.4912 29.3132 60.5804 23.3815 60.5804 23.3815L58.5208 22.9461C58.5208 22.9461 57.4751 26.2642 55.9981 27.8954ZM84.5735 27.8954C83.3756 29.2162 80.1725 29.4667 75.0547 29.4667C72.552 29.4667 70.8395 29.4075 69.4169 29.2689L88.5197 2.25607L87.9778 1.15253H69.2828C67.5983 1.15253 67.5983 0.864165 67.1371 0H65.4064C65.2587 4.14245 64.8129 9.26459 64.8129 9.26459L66.8824 9.33853C66.8824 9.33853 67.3065 7.48266 68.083 5.8754C69.0309 3.91416 69.4794 3.66462 74.3008 3.65445H81.9639L62.6001 30.8253L63.1973 31.9695H87.3625C88.0675 29.3132 89.1567 23.3815 89.1567 23.3815L87.0952 22.9461C87.0952 22.9461 86.0505 26.2642 84.5735 27.8954Z" fill="white"/>
</svg>
