<svg width="409" height="101" viewBox="0 0 409 101" fill="none" xmlns="http://www.w3.org/2000/svg">
<path fill-rule="evenodd" clip-rule="evenodd" d="M409 0H0V101H409V0ZM207.582 63.5966H213.753V37.4148H207.582V63.5966ZM210.685 33.6989C212.645 33.6989 214.247 32.1989 214.247 30.358C214.247 28.5 212.645 27 210.685 27C208.707 27 207.105 28.5 207.105 30.358C207.105 32.1989 208.707 33.6989 210.685 33.6989ZM58.6435 37.4148H64.1832V40.0568H58.6435V56.7614C58.6435 60.0511 60.5355 61.0227 62.598 61.0227C63.3991 61.0227 63.9446 60.9034 64.3707 60.7841L65.0185 63.5284C64.4389 63.75 63.5866 63.9886 62.3253 63.9886C58.9673 63.9886 55.5923 61.7557 55.5923 57.4773V40.0568H51.6889V37.4148H55.5923V31.142H58.6435V37.4148ZM37.9886 37.0568C42.7784 37.0568 45.5739 39.375 46.8523 43.1591L44.0739 43.9432C43.2557 41.5909 41.517 39.733 37.9886 39.733C34.4602 39.733 31.9205 41.5909 31.9205 44.25C31.9205 46.517 33.4375 47.8295 36.6932 48.6477L40.6477 49.6193C45.0284 50.6932 47.2273 53.0284 47.2273 56.5227C47.2273 60.9716 43.2727 64.142 37.5114 64.142C32.3807 64.142 28.9205 61.7727 28 57.4091L30.9148 56.6932C31.6477 59.7955 33.8807 61.4148 37.4602 61.4148C41.483 61.4148 44.0909 59.3864 44.0909 56.6591C44.0909 54.5625 42.7102 53.0795 39.8295 52.3977L35.5511 51.375C31 50.2841 28.8693 47.8977 28.8693 44.3864C28.8693 40.0739 32.7045 37.0568 37.9886 37.0568ZM78.3864 64.1932C82.75 64.1932 85.4091 61.7727 86.5 59.4545H86.6875V63.5966H89.7216V45.8182C89.7216 38.7955 84.4375 37.0568 80.4318 37.0568C76.4261 37.0568 72.3011 38.642 70.5284 42.9205L73.4091 43.9602C74.3636 41.7102 76.733 39.7841 80.517 39.7841C84.4886 39.7841 86.6875 41.9659 86.6875 45.5455V46.1591C86.6875 47.9126 84.7572 48.1378 81.2531 48.5468L81.2527 48.5468C80.8056 48.599 80.3329 48.6542 79.8352 48.7159C73.9205 49.4489 69.7784 51.1023 69.7784 56.2841C69.7784 61.3295 73.6307 64.1932 78.3864 64.1932ZM78.7955 61.4148C75.3693 61.4148 72.8125 59.5909 72.8125 56.4205C72.8125 53.25 75.4034 51.9205 79.8352 51.375C81.983 51.1193 85.8011 50.642 86.6875 49.7727V53.5568C86.6875 57.8523 83.6364 61.4148 78.7955 61.4148ZM100.827 63.5966H97.7926V37.4148H100.741V41.4375H100.963C102.02 38.7955 104.832 37.0227 108.122 37.0227C108.542 37.0227 109.109 37.0473 109.521 37.0651L109.724 37.0739V40.1591C109.7 40.1561 109.672 40.1522 109.641 40.1477L109.601 40.142L109.53 40.1316L109.529 40.1315L109.529 40.1315C109.175 40.0796 108.555 39.9886 107.901 39.9886C103.81 39.9886 100.827 42.8011 100.827 46.6875V63.5966ZM126.855 37.4148H121.315V31.142H118.264V37.4148H114.361V40.0568H118.264V57.4773C118.264 61.7557 121.639 63.9886 124.997 63.9886C126.259 63.9886 127.111 63.75 127.69 63.5284L127.043 60.7841C126.616 60.9034 126.071 61.0227 125.27 61.0227C123.207 61.0227 121.315 60.0511 121.315 56.7614V40.0568H126.855V37.4148ZM143.223 60.9886C146.768 60.9886 150.382 58.3977 150.382 53.5909V37.4148H153.416V63.5966H150.382V59.25H150.143C148.916 61.9432 146.189 63.9375 142.354 63.9375C137.325 63.9375 133.746 60.5795 133.746 54.375V37.4148H136.78V54.1875C136.78 58.2784 139.439 60.9886 143.223 60.9886ZM161.398 73.4148H164.449V58.7386H164.722C165.761 61.142 168.011 64.142 172.767 64.142C179.176 64.142 183.54 58.6875 183.54 50.5739C183.54 42.4943 179.193 37.0568 172.716 37.0568C167.909 37.0568 165.778 40.0568 164.722 42.4091H164.347V37.4148H161.398V73.4148ZM164.398 50.5227C164.398 44.25 167.278 39.8182 172.392 39.8182C177.659 39.8182 180.489 44.4886 180.489 50.5227C180.489 56.625 177.608 61.3636 172.392 61.3636C167.33 61.3636 164.398 56.8466 164.398 50.5227ZM197.257 37.4148H202.422V42.1875H197.257V55.7216C197.257 58.2102 198.501 58.7557 200.053 58.7557C200.82 58.7557 201.518 58.6023 201.859 58.517L202.899 63.3409C202.234 63.5625 201.024 63.9034 199.268 63.9545C194.632 64.0909 191.053 61.6705 191.087 56.7443V42.1875H187.371V37.4148H191.087V31.142H197.257V37.4148ZM242.734 54.6477C242.291 60.2045 238.098 64.108 231.518 64.108C223.695 64.108 218.973 58.5341 218.973 50.608C218.973 42.6136 223.814 37.0739 231.484 37.0739C237.876 37.0739 242.308 40.8068 242.734 46.483H236.837C236.359 43.9602 234.536 42.0511 231.57 42.0511C227.768 42.0511 225.229 45.2216 225.229 50.5057C225.229 55.858 227.717 59.0795 231.57 59.0795C234.28 59.0795 236.308 57.4602 236.837 54.6477H242.734ZM247.801 63.5966H253.972V54.8011L256.222 52.3977L264.233 63.5966H271.614L260.875 48.7159L271.017 37.4148H263.807L254.398 47.9318H253.972V28.6875H247.801V63.5966ZM297.028 56.5739C295.938 61.125 291.744 64.108 285.642 64.108C277.75 64.108 272.926 58.875 272.926 50.6591C272.926 42.5795 277.818 37.0739 285.318 37.0739C291.761 37.0739 297.284 41.1136 297.284 50.3011V52.1932H279.045C279.097 56.6761 281.739 59.3011 285.727 59.3011C288.386 59.3011 290.432 58.142 291.267 55.9261L297.028 56.5739ZM285.403 41.8807C281.722 41.8807 279.25 44.6932 279.062 48.0341H291.369C291.335 44.4716 288.949 41.8807 285.403 41.8807ZM302.504 63.5966H308.675V48.2045C308.675 44.8807 311.18 42.5284 314.572 42.5284C315.612 42.5284 316.908 42.7159 317.436 42.8864V37.2102C316.874 37.108 315.902 37.0398 315.22 37.0398C312.22 37.0398 309.715 38.7443 308.76 41.7784H308.487V37.4148H302.504V63.5966ZM327.246 61.3977C327.246 62.7443 326.155 63.8523 324.791 63.8523C323.445 63.8523 322.337 62.7443 322.337 61.3977C322.337 60.0341 323.445 58.9432 324.791 58.9432C326.155 58.9432 327.246 60.0341 327.246 61.3977ZM345.489 64.142C350.943 64.142 354.778 60.6989 355.477 55.9602H352.409C351.71 59.3011 348.966 61.3636 345.489 61.3636C340.358 61.3636 336.966 56.8977 336.966 50.5227C336.966 44.1818 340.46 39.8182 345.489 39.8182C349.222 39.8182 351.744 42.2216 352.392 45.1875H355.46C354.744 40.3295 350.688 37.0568 345.438 37.0568C338.585 37.0568 333.915 42.75 333.915 50.625C333.915 58.4318 338.449 64.142 345.489 64.142ZM372.276 39.8523C368.082 39.8523 365.014 42.6648 365.014 47.233V63.5966H361.98V28.6875H365.014V41.5227H365.287C366.514 38.8125 369.088 37.0739 373.043 37.0739C378.361 37.0739 381.974 40.3977 381.974 46.6364V63.5966H378.923V46.8239C378.923 42.5114 376.332 39.8523 372.276 39.8523Z" fill="white"/>
</svg>
