<svg width="450" height="99" viewBox="0 0 450 99" fill="none" xmlns="http://www.w3.org/2000/svg">
<g clip-path="url(#clip0_653_8157)">
<path d="M370.516 0.114998C410.143 0.980998 439.422 11.192 442.537 27.067C447.478 52.222 388.489 84.595 314.807 98.451C395.657 83.249 454.646 50.869 449.712 25.721C446.597 9.846 417.325 -0.365002 370.516 0.114998Z" fill="white"/>
<path d="M370.516 0.114998C410.143 0.980998 439.422 11.192 442.537 27.067C447.478 52.222 388.489 84.595 314.807 98.451C395.657 83.249 454.646 50.869 449.712 25.721C446.597 9.846 417.325 -0.365002 370.516 0.114998Z" fill="white"/>
<path d="M114.161 47.954V53.038H103.119V0.00699997H114.161V19.691C116.846 16.061 120.555 13.368 126.291 13.368C135.371 13.368 144.021 20.529 144.021 33.496V33.639C144.021 46.643 135.521 53.76 126.291 53.76C120.405 53.761 116.774 51.076 114.161 47.954ZM132.979 33.633V33.49C132.979 27.045 128.618 22.749 123.463 22.749C118.308 22.749 114.018 27.045 114.018 33.49V33.633C114.018 40.078 118.314 44.374 123.463 44.374C128.611 44.374 132.979 40.178 132.979 33.64V33.633V33.633Z" fill="white"/>
<path d="M147.944 33.784V33.64C147.944 22.455 156.952 13.368 169.082 13.368C181.212 13.368 190.077 22.304 190.077 33.496V33.639C190.077 44.824 181.069 53.911 168.939 53.911C156.809 53.912 147.944 44.975 147.944 33.784ZM179.179 33.784V33.64C179.179 27.912 175.04 22.899 168.939 22.899C162.616 22.899 158.835 27.768 158.835 33.511V33.654C158.835 39.382 162.981 44.395 169.082 44.395C175.405 44.395 179.179 39.526 179.179 33.784Z" fill="white"/>
<path d="M193.5 47.883L198.219 40.615C202.437 43.665 206.869 45.262 210.499 45.262C213.693 45.262 215.146 44.102 215.146 42.355V42.212C215.146 39.813 211.372 39.018 207.083 37.708C201.634 36.111 195.461 33.569 195.461 26.015V25.865C195.461 17.988 201.848 13.52 209.696 13.52C214.871 13.593 219.916 15.157 224.225 18.024L219.993 25.65C216.141 23.394 212.288 22.02 209.46 22.02C206.768 22.02 205.393 23.18 205.393 24.705V24.848C205.393 27.032 209.095 28.049 213.313 29.502C218.755 31.314 225.078 33.934 225.078 41.052V41.195C225.078 49.838 218.633 53.762 210.184 53.762C204.124 53.711 198.253 51.642 193.5 47.883Z" fill="white"/>
<path d="M228.873 47.883L233.599 40.615C237.817 43.665 242.249 45.262 245.879 45.262C249.073 45.262 250.526 44.102 250.526 42.355V42.212C250.526 39.813 246.752 39.018 242.463 37.708C237.014 36.111 230.841 33.569 230.841 26.015V25.865C230.841 17.988 237.235 13.52 245.076 13.52C250.251 13.593 255.296 15.157 259.605 18.024L255.395 25.65C251.543 23.394 247.69 22.02 244.862 22.02C242.17 22.02 240.795 23.18 240.795 24.705V24.848C240.795 27.032 244.497 28.049 248.715 29.502C254.157 31.314 260.48 33.934 260.48 41.052V41.195C260.48 49.838 254.035 53.762 245.586 53.762C239.516 53.717 233.634 51.648 228.873 47.883Z" fill="white"/>
<path d="M376.094 30.182C376.094 41.31 369.542 48.842 362.36 48.842C356.632 48.842 354.333 45.741 354.333 39.97C354.333 30.461 359.897 21.517 368.139 21.517C373.559 21.517 376.094 24.618 376.094 30.182ZM381.658 29.688C381.658 22.291 377.784 17.085 368.912 17.085C357.455 17.085 348.913 27.224 348.913 40.951C348.913 48.978 352.995 53.346 361.444 53.346C371.798 53.346 381.658 44.123 381.658 29.716V29.688ZM320.457 29C321.889 21.532 319.54 17.028 313.203 17.028C305.598 17.028 299.82 24.84 296.44 32.731L296.304 32.659C297.978 27.761 299.388 22.778 300.529 17.729C296.741 17.607 292.95 17.772 289.187 18.223L288.628 21.252C290.669 21.395 292.989 21.674 294.543 21.968L294.471 22.183L288.628 52.744H293.834L295.18 45.247C296.87 36.375 304.41 21.517 311.592 21.517C315.108 21.517 316.168 24.195 315.036 30.181L310.74 52.715H315.874L320.457 29ZM281.131 17.73C277.346 17.606 273.556 17.772 269.796 18.224L269.237 21.253C271.278 21.396 273.598 21.675 275.152 21.969L275.08 22.184L269.237 52.745H274.443L281.131 17.73ZM283.995 7.447C283.933 5.63 282.433 4.194 280.615 4.21C278.472 4.252 276.769 6.024 276.811 8.167C276.811 8.187 276.812 8.207 276.813 8.227C276.848 10.01 278.322 11.427 280.105 11.392C280.11 11.392 280.116 11.392 280.121 11.392C282.237 11.417 283.972 9.722 283.996 7.606C283.997 7.553 283.997 7.5 283.995 7.447Z" fill="white"/>
<path d="M357.183 0.623C355.272 0.214 353.323 0.005 351.369 0C342.776 0 337.764 4.719 336.002 14.164L335.522 16.806H328.182L327.359 20.895H334.756L328.533 53.397C326.857 61.925 323.879 64.782 318.616 64.782C316.857 64.783 315.108 64.525 313.425 64.016L312.115 68.534C314.08 68.954 316.085 69.16 318.094 69.15C326.336 69.15 331.527 64.632 333.683 53.254L339.841 20.881H349.737L350.568 16.785H340.572L341.066 14.15C342.298 7.211 345.362 4.225 350.683 4.225C352.438 4.243 354.182 4.501 355.867 4.991L357.183 0.623Z" fill="white"/>
<path d="M3.745 86.686L3.201 89.056H0L4.762 69.415H7.999L6.316 76.354C7.455 75.13 8.658 74.285 10.233 74.285C12.739 74.285 14.751 76.354 14.751 80.107C14.798 82.799 13.814 85.406 12.001 87.396C10.871 88.566 9.33 89.249 7.705 89.301C5.971 89.332 4.397 88.293 3.745 86.686ZM9.473 85.547C10.74 84.128 11.421 82.28 11.378 80.377C11.378 78.308 10.454 77.033 8.822 77.033C7.892 77.05 7.009 77.443 6.373 78.121C5.144 79.539 4.476 81.357 4.497 83.234C4.497 85.275 5.585 86.557 7.189 86.557C8.072 86.553 8.916 86.188 9.523 85.547H9.473Z" fill="white"/>
<path d="M19.8349 82.962V83.177C19.8349 85.325 20.8949 86.714 22.6989 86.714C23.8419 86.697 24.9409 86.273 25.7999 85.518L27.2319 87.723C25.9069 88.769 24.2659 89.335 22.5779 89.327C18.9979 89.327 16.8069 86.957 16.8069 83.176C16.8039 80.636 17.7779 78.193 19.5279 76.352C20.7729 75.034 22.5049 74.286 24.3179 74.283C27.3899 74.283 29.2949 76.488 29.2949 79.618C29.2849 80.761 29.0739 81.892 28.6719 82.962H19.8349ZM20.1639 80.814H26.1499C26.2719 80.362 26.3249 79.893 26.3079 79.425C26.3079 77.993 25.5919 76.89 24.1099 76.89C23.1979 76.904 22.3319 77.289 21.7109 77.957C20.9629 78.775 20.4309 79.767 20.1639 80.843V80.814Z" fill="white"/>
<path d="M40.4859 86.686L39.9419 89.056H36.7339L41.4959 69.415H44.7329L43.0429 76.354C44.1889 75.13 45.3849 74.285 46.9669 74.285C49.4659 74.285 51.4779 76.354 51.4779 80.107C51.5269 82.798 50.5459 85.405 48.7359 87.396C47.5969 88.573 46.0419 89.257 44.4039 89.301C42.6859 89.31 41.1349 88.275 40.4859 86.686ZM46.2569 85.547C47.5219 84.126 48.2019 82.279 48.1619 80.377C48.1619 78.308 47.2379 77.033 45.6059 77.033C44.6759 77.047 43.7909 77.44 43.1569 78.121C41.9229 79.536 41.2529 81.356 41.2739 83.234C41.2739 85.275 42.3619 86.557 43.9739 86.557C44.8389 86.539 45.6619 86.176 46.2569 85.547Z" fill="white"/>
<path d="M66.758 80.485C66.779 83.012 65.822 85.449 64.087 87.288C62.845 88.607 61.115 89.355 59.304 89.357C55.795 89.357 53.576 86.822 53.576 83.177C53.543 80.642 54.498 78.195 56.24 76.353C57.483 75.032 59.217 74.284 61.03 74.284C64.524 74.284 66.758 76.783 66.758 80.485ZM61.746 85.547C62.938 84.149 63.593 82.372 63.593 80.535C63.593 78.244 62.505 77.048 60.872 77.048C60.008 77.075 59.189 77.437 58.588 78.058C57.386 79.436 56.729 81.206 56.741 83.035C56.741 85.319 57.829 86.522 59.462 86.522C60.322 86.511 61.143 86.161 61.746 85.547Z" fill="white"/>
<path d="M67.145 86.686L69.078 84.731C70.381 86.163 71.577 86.822 72.801 86.822C73.77 86.905 74.622 86.187 74.706 85.218C74.706 84.402 74.162 83.886 72.501 82.798C70.518 81.523 69.537 80.435 69.537 78.688C69.537 76.382 71.442 74.342 74.549 74.342C76.412 74.374 78.185 75.147 79.475 76.49L77.678 78.588C76.403 77.335 75.451 76.791 74.391 76.791C73.504 76.719 72.727 77.379 72.654 78.266C72.653 78.283 72.652 78.3 72.651 78.316C72.651 79.104 73.138 79.569 74.849 80.658C77.083 82.09 77.842 83.322 77.842 84.876C77.842 87.346 75.694 89.308 72.758 89.308C70.594 89.294 68.544 88.336 67.145 86.686Z" fill="white"/>
<path d="M79.196 86.686L81.129 84.731C82.432 86.163 83.628 86.822 84.852 86.822C85.817 86.908 86.669 86.196 86.756 85.231C86.756 85.227 86.757 85.222 86.757 85.218C86.757 84.402 86.213 83.886 84.559 82.798C82.568 81.523 81.595 80.435 81.595 78.688C81.595 76.382 83.493 74.342 86.572 74.342C88.434 74.375 90.207 75.148 91.498 76.49L89.672 78.61C88.39 77.357 87.438 76.813 86.378 76.813C85.491 76.741 84.714 77.401 84.641 78.288C84.64 78.305 84.639 78.322 84.638 78.338C84.638 79.126 85.125 79.591 86.843 80.68C89.07 82.112 89.836 83.344 89.836 84.898C89.836 87.368 87.688 89.33 84.745 89.33C82.6 89.291 80.577 88.327 79.196 86.686Z" fill="white"/>
<path d="M101.845 74.556H105.053L101.516 89.056H98.2649L101.845 74.556ZM103.012 69.386H106.442L105.597 72.544H102.196L103.012 69.386Z" fill="white"/>
<path d="M108.747 74.556H111.955L111.575 76.239C112.482 75.058 113.868 74.342 115.356 74.284C117.504 74.284 118.972 75.716 118.972 78.093C118.923 79.012 118.78 79.924 118.542 80.814L116.58 89.056H113.3L115.312 80.757C115.466 80.209 115.548 79.643 115.555 79.074C115.661 78.155 115.002 77.323 114.083 77.217C113.949 77.201 113.813 77.202 113.679 77.219C112.161 77.219 110.937 78.579 110.528 80.377L108.38 89.056H105.208L108.747 74.556Z" fill="white"/>
<path d="M128.99 74.556H132.284L132.828 85.189L138.105 74.556H141.556L133.529 89.3C132.011 92.107 130.665 93.217 128.66 93.217C127.549 93.224 126.475 92.818 125.645 92.078L127.192 89.873C127.611 90.237 128.136 90.455 128.689 90.496C129.29 90.496 129.777 90.116 130.379 89.135L128.99 74.556Z" fill="white"/>
<path d="M154.224 80.485C154.247 83.011 153.293 85.449 151.56 87.288C150.315 88.606 148.583 89.354 146.77 89.357C143.261 89.357 141.042 86.822 141.042 83.177C141.008 80.641 141.967 78.192 143.713 76.353C144.953 75.031 146.684 74.282 148.496 74.284C152.019 74.284 154.224 76.783 154.224 80.485ZM149.212 85.547C150.404 84.149 151.059 82.372 151.059 80.535C151.059 78.244 149.971 77.048 148.345 77.048C147.479 77.075 146.658 77.437 146.054 78.058C144.852 79.436 144.196 81.206 144.207 83.035C144.207 85.319 145.295 86.522 146.928 86.522C147.791 86.517 148.617 86.167 149.219 85.548L149.212 85.547Z" fill="white"/>
<path d="M156.265 85.519C156.305 84.6 156.442 83.688 156.673 82.798L158.656 74.556H161.893L159.845 82.826C159.708 83.38 159.627 83.946 159.602 84.516C159.493 85.443 160.156 86.283 161.082 86.392C161.213 86.407 161.346 86.407 161.478 86.392C163.003 86.392 164.256 85.032 164.636 83.234L166.784 74.555H170.021L166.484 89.055H163.247L163.655 87.365C162.743 88.542 161.361 89.259 159.874 89.327C157.697 89.328 156.265 87.91 156.265 85.519Z" fill="white"/>
<path d="M173.737 74.556H176.945L176.315 77.17C177.539 75.315 179.007 74.148 181.206 74.306L180.311 77.679H180.118C177.676 77.679 175.822 79.068 175.005 82.412L173.401 89.05H170.193L173.737 74.556Z" fill="white"/>
<path d="M190.442 86.686L189.919 89.056H186.704L191.466 69.415H194.703L193.02 76.354C194.159 75.13 195.361 74.285 196.937 74.285C199.443 74.285 201.455 76.354 201.455 80.107C201.502 82.799 200.518 85.406 198.705 87.396C197.575 88.566 196.034 89.249 194.409 89.301C192.674 89.333 191.097 88.294 190.442 86.686ZM196.171 85.547C197.438 84.128 198.119 82.28 198.076 80.377C198.076 78.308 197.152 77.033 195.52 77.033C194.59 77.05 193.707 77.443 193.071 78.121C191.842 79.539 191.174 81.357 191.195 83.234C191.195 85.275 192.283 86.557 193.887 86.557C194.765 86.549 195.603 86.185 196.207 85.547H196.171Z" fill="white"/>
<path d="M203.439 85.519C203.479 84.6 203.616 83.688 203.847 82.798L205.838 74.556H209.075L207.063 82.826C206.926 83.38 206.845 83.946 206.82 84.516C206.711 85.443 207.374 86.283 208.3 86.392C208.431 86.407 208.564 86.407 208.696 86.392C210.221 86.392 211.467 85.032 211.847 83.234L213.995 74.555H217.232L213.695 89.055H210.458L210.866 87.365C209.954 88.542 208.572 89.259 207.085 89.327C204.885 89.328 203.439 87.91 203.439 85.519Z" fill="white"/>
<path d="M216.8 86.686L218.733 84.731C220.036 86.163 221.239 86.822 222.456 86.822C223.421 86.908 224.273 86.196 224.36 85.231C224.36 85.227 224.361 85.222 224.361 85.218C224.361 84.402 223.817 83.886 222.163 82.798C220.172 81.523 219.199 80.435 219.199 78.688C219.199 76.382 221.104 74.342 224.176 74.342C226.038 74.375 227.811 75.148 229.102 76.49L227.305 78.588C226.023 77.335 225.071 76.791 224.011 76.791C223.124 76.719 222.347 77.379 222.274 78.266C222.273 78.283 222.272 78.3 222.271 78.316C222.271 79.104 222.758 79.569 224.476 80.658C226.703 82.09 227.469 83.322 227.469 84.876C227.469 87.346 225.321 89.308 222.378 89.308C220.227 89.283 218.192 88.327 216.8 86.686Z" fill="white"/>
<path d="M232.797 74.556H236.005L232.468 89.056H229.231L232.797 74.556ZM233.964 69.386H237.394L236.549 72.544H233.148L233.964 69.386Z" fill="white"/>
<path d="M239.743 74.556H242.958L242.571 76.239C243.478 75.058 244.864 74.342 246.352 74.284C248.5 74.284 249.975 75.716 249.975 78.093C249.924 79.013 249.777 79.924 249.538 80.814L247.576 89.056H244.339L246.358 80.757C246.508 80.208 246.59 79.643 246.601 79.074C246.707 78.155 246.048 77.323 245.129 77.217C244.995 77.201 244.859 77.202 244.725 77.219C243.2 77.219 241.975 78.579 241.567 80.377L239.419 89.056H236.204L239.743 74.556Z" fill="white"/>
<path d="M254.966 82.962V83.177C254.966 85.325 256.026 86.714 257.83 86.714C258.973 86.697 260.072 86.273 260.93 85.518L262.362 87.723C261.04 88.77 259.401 89.336 257.715 89.327C254.135 89.327 251.944 86.957 251.944 83.176C251.937 80.636 252.912 78.191 254.665 76.352C255.91 75.034 257.642 74.286 259.455 74.283C262.527 74.283 264.432 76.488 264.432 79.618C264.422 80.761 264.211 81.892 263.809 82.962H254.966ZM255.288 80.814H261.274C261.399 80.362 261.454 79.894 261.439 79.425C261.439 77.993 260.723 76.89 259.234 76.89C258.325 76.906 257.461 77.291 256.842 77.957C256.094 78.776 255.56 79.767 255.288 80.843V80.814V80.814Z" fill="white"/>
<path d="M264.733 86.686L266.666 84.731C267.969 86.163 269.165 86.822 270.389 86.822C271.358 86.905 272.21 86.187 272.294 85.218C272.294 84.402 271.75 83.886 270.089 82.798C268.106 81.523 267.125 80.435 267.125 78.688C267.125 76.382 269.03 74.342 272.102 74.342C273.965 74.374 275.738 75.147 277.028 76.49L275.231 78.588C273.956 77.335 273.004 76.791 271.944 76.791C271.053 76.719 270.272 77.382 270.2 78.273C270.199 78.287 270.198 78.302 270.197 78.317C270.197 79.105 270.691 79.57 272.402 80.659C274.636 82.091 275.395 83.323 275.395 84.877C275.395 87.347 273.247 89.309 270.311 89.309C268.16 89.283 266.124 88.327 264.733 86.686Z" fill="white"/>
<path d="M276.784 86.686L278.717 84.731C280.02 86.163 281.216 86.822 282.44 86.822C283.405 86.908 284.257 86.196 284.344 85.231C284.344 85.227 284.345 85.222 284.345 85.218C284.345 84.402 283.801 83.886 282.147 82.798C280.156 81.523 279.175 80.435 279.175 78.688C279.175 76.382 281.08 74.342 284.187 74.342C286.048 74.374 287.818 75.147 289.106 76.49L287.316 78.588C286.034 77.335 285.082 76.791 284.022 76.791C283.135 76.719 282.358 77.379 282.285 78.266C282.284 78.283 282.283 78.3 282.282 78.316C282.282 79.104 282.769 79.569 284.487 80.658C286.714 82.09 287.473 83.322 287.473 84.876C287.473 87.346 285.325 89.308 282.389 89.308C280.23 89.291 278.182 88.334 276.784 86.686Z" fill="white"/>
</g>
<defs>
<clipPath id="clip0_653_8157">
<rect width="450" height="99" fill="white"/>
</clipPath>
</defs>
</svg>
