<svg width="340" height="139" viewBox="0 0 340 139" fill="none" xmlns="http://www.w3.org/2000/svg">
<path d="M150.6 36V104.4H133V98.9C127.6 103.7 121.2 105.8 114.5 105.8C105.1 105.8 96.6 101.4 91.2 94.8C86.8 89.4 84.3 82.4 84.3 72.2V36H102.6V73C102.6 79.2 103.9 82.3 106 84.7C108.8 87.8 112.8 88.9 116.3 88.9C124.1 88.9 129.7 83.7 132.2 80.4V36H150.6Z" fill="white"/>
<path d="M174.6 0C181.2 0 186.6 5.1 186.6 11.7C186.6 18.3 181.2 23.4 174.6 23.4C168 23.4 162.6 18.3 162.6 11.7C162.6 5.1 168 0 174.6 0ZM183.8 104.4H165.5V36H183.8V104.4Z" fill="white"/>
<path d="M327.1 82.6C334 82.6 339.5 88.1 339.5 95C339.5 101.9 334 107.3 327.1 107.3C320.2 107.3 314.8 101.9 314.8 95C314.8 88.1 320.2 82.6 327.1 82.6Z" fill="white"/>
<path d="M285.6 51.5H302.3V36H285.6V17H267.3V36H253V51.5H267.2V84.6C267.2 90.4 269.3 95.4 273.6 99.6C277.8 103.7 282.9 105.8 288.7 105.8H302.3V89.6H292.6C290.6 89.6 289 88.9 287.6 87.5C286.2 86.1 285.6 84.5 285.6 82.5V51.5Z" fill="white"/>
<path d="M227.6 51.5H244.3V36H227.6V17H209.3V36H195.1V51.5H209.3V84.6C209.3 90.4 211.4 95.4 215.7 99.6C220 103.8 225 105.8 230.8 105.8H244.4V89.6H234.7C232.7 89.6 231.1 88.9 229.7 87.5C228.3 86.1 227.7 84.5 227.7 82.5L227.6 51.5Z" fill="white"/>
<path d="M33.6 34.6C15 34.6 0 50.1 0 70.2C0 79.5 3.2 88 8.6 94.2C14.7 101.3 24.4 105.8 34.6 105.8C41.5 105.8 47.4 103.8 52.9 99.6V138.7H71.2V51.5V36C71.2 36 49.4 34.6 33.6 34.6ZM52.9 80.4C49.4 85.5 43.3 88.9 36.4 88.9C26.1 88.9 18.3 81 18.3 70.3C18.3 60.4 25.2 51.5 35.9 51.5C36 51.5 52.8 51.5 52.8 51.5L52.9 80.4Z" fill="white"/>
</svg>
