<svg width="300" height="50" viewBox="0 0 300 50" fill="none" xmlns="http://www.w3.org/2000/svg">
<path d="M250.8 6.3C247.6 8.1 245 9.8 245 10.1C245 10.9 251.9 14 253.8 14C254.7 13.9 257 13.1 258.9 12.1C262.3 10.3 262.5 10.3 267.2 12.3C271.5 14.1 272.4 14.1 275.7 12.9C277.7 12.1 279.5 11 279.7 10.5C279.9 9.9 277.4 8 274.1 6.2C265.9 1.7 258.9 1.8 250.8 6.3Z" fill="white"/>
<path d="M2.7 5.7C2.3 6 2 10.1 2 14.7V23H12H22V19.5V16H29H36V26V36H29.5H23V41.5V47L50.8 46.8L78.5 46.5L78.8 41.2L79.1 36H72.1H65V26V16H72.5H80V19.5V23H89.5H99.1L98.8 14.2L98.5 5.5L50.9 5.2C24.8 5.1 3 5.3 2.7 5.7Z" fill="white"/>
<path d="M127.4 6.3C127.1 7.1 127 9.5 127.2 11.6L127.5 15.5L133.8 15.8L140 16.1V26V36H133.4H126.9L127.2 41.2L127.5 46.5H170C211.2 46.5 212.6 46.4 217.1 44.4C225.4 40.5 226.1 32.4 218.4 28.5C213.4 25.9 213.2 25.8 214.8 25.2C215.6 25 217.7 23.4 219.6 21.8C225.5 16.6 224 11.7 215 7.6C210.7 5.6 208.7 5.5 169.2 5.2C134 4.9 127.9 5.1 127.4 6.3ZM190.8 17.2C191.6 18 191.7 18.7 190.9 19.7C190.1 20.6 186.7 21 178.9 21H168V18.5V16H178.8C185.7 16 190 16.4 190.8 17.2ZM191.1 32.6C193.2 35.2 190.5 36 178.8 36H168V33.5V31H178.9C187.6 31 190 31.3 191.1 32.6Z" fill="white"/>
<path d="M245.2 18.5C229.3 22.1 223.6 31.2 232.2 39.1C243.5 49.7 286.5 49.1 295 38.2C300.2 31.6 295.8 23.9 284.6 19.9C276.6 17.1 254.7 16.3 245.2 18.5ZM269.8 27.6C271.2 28.6 272 30.2 272 32C272 35.9 268.8 38 262.8 38C259.3 38 257.4 37.4 256 36C253.3 33.3 253.4 29.5 256.2 27.6C259.1 25.6 266.9 25.6 269.8 27.6Z" fill="white"/>
<path d="M103.2 25.7L103.5 31.5H114H124.5L124.8 25.7L125.1 20H114H102.9L103.2 25.7Z" fill="white"/>
</svg>
