<svg width="103" height="14" viewBox="0 0 103 14" fill="none" xmlns="http://www.w3.org/2000/svg">
<path d="M13.6845 13.8028L11.2986 0H8.34086L0 13.8028H2.72116L4.67329 10.5493H10.5493L11.1014 13.8028H13.6845ZM9.22818 2.91833L10.1353 8.18313H6.07329L9.22818 2.91833Z" fill="white"/>
<path d="M17.3603 13.8028L18.011 10.7071L19.5096 9.52394L22.2701 13.8028H25.2279L21.4222 8.00566L26.5293 3.94369H23.1772L18.6814 7.53243L20.2983 0H17.7349L14.7969 13.8028H17.3603Z" fill="white"/>
<path d="M32.4654 13.8021L32.9189 11.633H30.7302C30.2372 11.633 30.1583 11.2584 30.2569 10.7851L31.2823 6.01333H33.6288L34.0428 3.94293H31.7161L32.4062 0.748535H29.902L29.2118 3.94293H27.0823L26.6484 6.01333H28.7583L27.6343 11.3373C27.3386 12.7176 28.0682 13.8021 29.5273 13.8021H32.4654Z" fill="white"/>
<path d="M38.9637 2.66197L39.5356 0H36.7749L36.2031 2.66197H38.9637ZM36.4989 13.8028L38.589 3.94369H36.0256L33.9355 13.8028H36.4989Z" fill="white"/>
<path d="M43.5596 13.9962C46.3398 13.9962 48.9427 12.1033 48.9427 8.17935C48.9427 5.6948 47.3455 3.74268 44.3089 3.74268C41.5286 3.74268 38.9258 5.63566 38.9258 9.5596C38.9258 12.0441 40.523 13.9962 43.5596 13.9962ZM43.6779 11.9258C42.2779 11.9258 41.4891 10.9202 41.4891 9.36242C41.4891 7.13424 42.7117 5.81313 44.0328 5.81313H44.1905C45.5905 5.81313 46.3793 6.81874 46.3793 8.37652C46.3793 10.5849 45.1568 11.9258 43.8356 11.9258H43.6779Z" fill="white"/>
<path d="M51.8446 13.799L53.008 8.33707C53.3432 6.7596 54.4869 5.81313 55.532 5.81313H55.6897C56.7348 5.81313 57.0503 6.44409 56.8137 7.58778L55.4925 13.799H58.0559L59.3968 7.48919C59.9292 5.02439 58.5883 3.74268 56.5771 3.74268C55.5517 3.74268 54.6249 4.05818 53.6982 5.00465L53.9348 3.9399H51.3714L49.2812 13.799H51.8446Z" fill="white"/>
<path d="M64.445 13.9962C65.5493 13.9962 66.6338 13.3849 67.0084 12.7342L66.7915 13.799H69.3549L71.4648 3.9399H68.9014L68.5859 5.41874C68.0732 4.39338 66.9493 3.74268 65.5493 3.74268C63.2225 3.74268 60.5605 6.08919 60.5605 9.48071C60.5605 12.2413 62.2366 13.9962 64.445 13.9962ZM65.076 11.9258C63.8929 11.9258 63.1239 10.999 63.1239 9.48071C63.1239 7.39061 64.4648 5.81313 65.8253 5.81313H65.9831C67.1267 5.81313 67.8563 6.66101 67.8563 8.08071C67.8563 10.0131 66.8507 11.9061 65.2338 11.9258H65.076Z" fill="white"/>
<path d="M73.8384 13.8005L74.8243 9.04837C75.1595 7.4709 76.1652 6.20893 77.9989 6.20893H78.8666L79.3595 3.84277H78.7285C77.4271 3.84277 76.2637 4.41459 75.4947 5.83429L75.8891 3.94136H73.3652L71.3145 13.8005H73.8384Z" fill="white"/>
<path d="M83.5048 2.66197L84.0766 0H81.316L80.7442 2.66197H83.5048ZM81.04 13.8028L83.1301 3.94369H80.5667L78.4766 13.8028H81.04Z" fill="white"/>
<path d="M87.3259 13.9962C88.4301 13.9962 89.5147 13.3849 89.8893 12.7342L89.6724 13.799H92.2358L94.3456 3.9399H91.7823L91.4668 5.41874C90.9541 4.39338 89.8301 3.74268 88.4301 3.74268C86.1034 3.74268 83.4414 6.08919 83.4414 9.48071C83.4414 12.2413 85.1175 13.9962 87.3259 13.9962ZM87.9569 11.9258C86.7738 11.9258 86.0048 10.999 86.0048 9.48071C86.0048 7.39061 87.3456 5.81313 88.7062 5.81313H88.864C90.0076 5.81313 90.7372 6.66101 90.7372 8.08071C90.7372 10.0131 89.7315 11.9061 88.1147 11.9258H87.9569Z" fill="white"/>
<path d="M100.612 13.8021L101.065 11.633H98.8766C98.3836 11.633 98.3048 11.2584 98.4034 10.7851L99.4287 6.01333H101.775L102.189 3.94293H99.8625L100.553 0.748535H98.0484L97.3583 3.94293H95.2287L94.7949 6.01333H96.9048L95.7808 11.3373C95.485 12.7176 96.2146 13.8021 97.6738 13.8021H100.612Z" fill="white"/>
</svg>
