<svg width="1200" height="800" viewBox="0 0 1200 800" fill="none" xmlns="http://www.w3.org/2000/svg">
<path d="M523.262 534.203C499.318 572.721 458 578 458 578H741C718.344 578 697.482 567.653 680.052 534.203C642.38 461.907 644.953 227 601.657 227C558.361 227 561.877 472.086 523.262 534.203Z" fill="url(#paint0_linear_663_8214)"/>
<path d="M458 578C458 578 499.318 572.722 523.262 534.203C561.877 472.086 558.361 227 601.657 227C644.953 227 642.38 461.907 680.052 534.203C697.482 567.653 718.344 578 741 578" stroke="#4D4DFF" stroke-width="4"/>
<path d="M284.414 145.586C283.633 144.805 282.367 144.805 281.586 145.586L268.858 158.314C268.077 159.095 268.077 160.361 268.858 161.142C269.639 161.923 270.905 161.923 271.686 161.142L283 149.828L294.314 161.142C295.095 161.923 296.361 161.923 297.142 161.142C297.923 160.361 297.923 159.095 297.142 158.314L284.414 145.586ZM283 578H281V580H283V578ZM994.414 579.414C995.195 578.633 995.195 577.367 994.414 576.586L981.686 563.858C980.905 563.077 979.639 563.077 978.858 563.858C978.077 564.639 978.077 565.905 978.858 566.686L990.172 578L978.858 589.314C978.077 590.095 978.077 591.361 978.858 592.142C979.639 592.923 980.905 592.923 981.686 592.142L994.414 579.414ZM281 147V578H285V147H281ZM283 580H993V576H283V580Z" fill="white"/>
<path d="M289.08 644V635.168H295.32C299.48 635.168 302.52 632.704 302.52 628.384C302.52 624.064 299.48 621.6 295.32 621.6H285.88V644H289.08ZM289.08 624.48H294.84C297.72 624.48 299.32 625.824 299.32 628.384C299.32 630.944 297.72 632.288 294.84 632.288H289.08V624.48ZM308.394 644V635.904C308.394 632.704 310.154 630.784 313.034 630.784H314.314V627.84H312.874C310.794 627.84 308.874 629.12 308.234 631.52V628H305.354V644H308.394ZM319.945 625.12V621.6H316.585V625.12H319.945ZM319.785 644V628H316.745V644H319.785ZM330.669 644.32C334.317 644.32 336.909 642.176 337.229 638.72H334.189C333.901 640.48 332.621 641.76 330.797 641.76H330.541C327.469 641.76 326.029 639.04 326.029 636C326.029 632.96 327.469 630.24 330.541 630.24H330.797C332.621 630.24 333.901 631.52 334.189 633.28H337.229C336.909 629.824 334.317 627.68 330.669 627.68C325.741 627.68 322.989 631.296 322.989 636C322.989 640.704 325.741 644.32 330.669 644.32ZM346.932 644.32C350.228 644.32 353.012 642.496 353.588 639.264H350.548C350.228 640.96 348.724 641.76 347.156 641.76H346.9C344.948 641.76 342.612 640.128 342.42 636.48H353.62V634.72C353.62 630.56 350.996 627.68 346.836 627.68C343.06 627.68 339.38 630.432 339.38 635.968C339.38 641.568 342.964 644.32 346.932 644.32ZM342.612 634.08C343.188 631.232 345.044 630.24 346.708 630.24H346.964C348.788 630.24 350.452 631.296 350.58 634.08H342.612ZM367.131 650.4V641.76C367.931 643.2 369.851 644.32 372.091 644.32C376.091 644.32 379.291 641.28 379.291 636C379.291 630.72 376.411 627.68 372.411 627.68C370.171 627.68 367.931 628.8 367.131 630.24V628H364.091V650.4H367.131ZM371.643 641.76C369.371 641.76 367.131 639.84 367.131 636C367.131 632.16 369.371 630.24 371.643 630.24H371.899C374.331 630.24 376.251 632.16 376.251 636C376.251 639.84 374.331 641.76 371.899 641.76H371.643ZM389.106 644.32C392.402 644.32 395.186 642.496 395.762 639.264H392.722C392.402 640.96 390.898 641.76 389.33 641.76H389.074C387.122 641.76 384.786 640.128 384.594 636.48H395.794V634.72C395.794 630.56 393.17 627.68 389.01 627.68C385.234 627.68 381.554 630.432 381.554 635.968C381.554 641.568 385.138 644.32 389.106 644.32ZM384.786 634.08C385.362 631.232 387.218 630.24 388.882 630.24H389.138C390.962 630.24 392.626 631.296 392.754 634.08H384.786ZM402.132 644V635.904C402.132 632.704 403.892 630.784 406.772 630.784H408.052V627.84H406.612C404.532 627.84 402.612 629.12 401.972 631.52V628H399.092V644H402.132ZM422.25 644.32C425.962 644.32 428.554 642.4 428.554 639.52C428.554 636.64 426.57 635.328 424.138 634.848L421.61 634.336C420.01 634.016 419.37 633.408 419.37 632.288C419.37 631.168 420.49 630.24 422.282 630.24H422.538C424.618 630.24 425.514 631.52 425.674 632.96H428.714C428.714 629.92 426.57 627.68 422.378 627.68C419.178 627.68 416.33 629.408 416.33 632.608C416.33 635.328 418.41 636.672 421.002 637.184L423.338 637.632C424.938 637.952 425.514 638.656 425.514 639.68C425.514 640.96 424.202 641.76 422.538 641.76H422.282C420.394 641.76 418.89 640.96 418.73 639.04H415.69C415.69 642.08 417.994 644.32 422.25 644.32ZM434.931 644V635.04C434.931 632 437.011 630.24 439.283 630.24H439.539C441.811 630.24 442.771 631.68 442.771 633.92V644H445.811V633.28C445.811 629.92 443.731 627.68 440.051 627.68C437.491 627.68 435.891 628.8 434.931 630.24V621.6H431.891V644H434.931ZM454.134 644.32C456.694 644.32 458.614 642.88 459.254 641.44C459.254 641.6 459.254 643.2 459.414 644H462.294C462.134 642.88 462.134 641.44 462.134 640.48V633.76C462.134 630.496 459.894 627.68 455.638 627.68C452.022 627.68 449.366 629.696 449.174 632.64H452.214C452.406 631.04 453.846 630.24 455.51 630.24H455.766C457.814 630.24 459.094 631.52 459.094 633.76V634.272L454.678 634.624C452.086 634.848 448.854 635.936 448.854 639.584C448.854 642.304 451.094 644.32 454.134 644.32ZM454.486 641.76C452.982 641.76 451.894 640.768 451.894 639.456C451.894 637.984 453.238 637.088 455.094 636.928L459.094 636.608V638.24C459.094 640.16 456.694 641.76 454.742 641.76H454.486ZM469.182 644V635.904C469.182 632.704 470.942 630.784 473.822 630.784H475.102V627.84H473.662C471.582 627.84 469.662 629.12 469.022 631.52V628H466.142V644H469.182ZM483.626 644.32C486.922 644.32 489.706 642.496 490.282 639.264H487.242C486.922 640.96 485.418 641.76 483.85 641.76H483.594C481.642 641.76 479.306 640.128 479.114 636.48H490.314V634.72C490.314 630.56 487.69 627.68 483.53 627.68C479.754 627.68 476.074 630.432 476.074 635.968C476.074 641.568 479.658 644.32 483.626 644.32ZM479.306 634.08C479.882 631.232 481.738 630.24 483.402 630.24H483.658C485.482 630.24 487.146 631.296 487.274 634.08H479.306Z" fill="white"/>
<path d="M490.509 752V749.84H480.669V735.2H478.269V752H490.509ZM497.525 752.24C499.997 752.24 502.085 750.872 502.517 748.448H500.237C499.997 749.72 498.869 750.32 497.693 750.32H497.501C496.037 750.32 494.285 749.096 494.141 746.36H502.541V745.04C502.541 741.92 500.573 739.76 497.453 739.76C494.621 739.76 491.861 741.824 491.861 745.976C491.861 750.176 494.549 752.24 497.525 752.24ZM494.285 744.56C494.717 742.424 496.109 741.68 497.357 741.68H497.549C498.917 741.68 500.165 742.472 500.261 744.56H494.285ZM509.503 752.24C512.287 752.24 514.231 750.8 514.231 748.64C514.231 746.48 512.743 745.496 510.919 745.136L509.023 744.752C507.823 744.512 507.343 744.056 507.343 743.216C507.343 742.376 508.183 741.68 509.527 741.68H509.719C511.279 741.68 511.951 742.64 512.071 743.72H514.351C514.351 741.44 512.743 739.76 509.599 739.76C507.199 739.76 505.063 741.056 505.063 743.456C505.063 745.496 506.623 746.504 508.567 746.888L510.319 747.224C511.519 747.464 511.951 747.992 511.951 748.76C511.951 749.72 510.967 750.32 509.719 750.32H509.527C508.111 750.32 506.983 749.72 506.863 748.28H504.583C504.583 750.56 506.311 752.24 509.503 752.24ZM521.222 752.24C524.006 752.24 525.95 750.8 525.95 748.64C525.95 746.48 524.462 745.496 522.638 745.136L520.742 744.752C519.542 744.512 519.062 744.056 519.062 743.216C519.062 742.376 519.902 741.68 521.246 741.68H521.438C522.998 741.68 523.67 742.64 523.79 743.72H526.07C526.07 741.44 524.462 739.76 521.318 739.76C518.918 739.76 516.782 741.056 516.782 743.456C516.782 745.496 518.342 746.504 520.286 746.888L522.038 747.224C523.238 747.464 523.67 747.992 523.67 748.76C523.67 749.72 522.686 750.32 521.438 750.32H521.246C519.83 750.32 518.702 749.72 518.582 748.28H516.302C516.302 750.56 518.03 752.24 521.222 752.24ZM537.552 752V745.376H542.232C545.352 745.376 547.632 743.528 547.632 740.288C547.632 737.048 545.352 735.2 542.232 735.2H535.152V752H537.552ZM537.552 737.36H541.872C544.032 737.36 545.232 738.368 545.232 740.288C545.232 742.208 544.032 743.216 541.872 743.216H537.552V737.36ZM552.518 752V745.928C552.518 743.528 553.838 742.088 555.998 742.088H556.958V739.88H555.878C554.318 739.88 552.878 740.84 552.398 742.64V740H550.238V752H552.518ZM561.661 737.84V735.2H559.141V737.84H561.661ZM561.541 752V740H559.261V752H561.541ZM570.184 752.24C572.92 752.24 574.864 750.632 575.104 748.04H572.824C572.608 749.36 571.648 750.32 570.28 750.32H570.088C567.784 750.32 566.704 748.28 566.704 746C566.704 743.72 567.784 741.68 570.088 741.68H570.28C571.648 741.68 572.608 742.64 572.824 743.96H575.104C574.864 741.368 572.92 739.76 570.184 739.76C566.488 739.76 564.424 742.472 564.424 746C564.424 749.528 566.488 752.24 570.184 752.24ZM582.861 752.24C585.333 752.24 587.421 750.872 587.853 748.448H585.573C585.333 749.72 584.205 750.32 583.029 750.32H582.837C581.373 750.32 579.621 749.096 579.477 746.36H587.877V745.04C587.877 741.92 585.909 739.76 582.789 739.76C579.957 739.76 577.197 741.824 577.197 745.976C577.197 750.176 579.885 752.24 582.861 752.24ZM579.621 744.56C580.053 742.424 581.445 741.68 582.693 741.68H582.885C584.253 741.68 585.501 742.472 585.597 744.56H579.621ZM603.267 752.24C607.467 752.24 609.627 749.72 609.627 746V735.2H607.227V745.76C607.227 748.52 605.907 750.08 603.387 750.08H603.147C600.627 750.08 599.307 748.52 599.307 745.76V735.2H596.907V746C596.907 749.72 598.947 752.24 603.267 752.24ZM615.564 752V745.28C615.564 743 617.124 741.68 618.828 741.68H619.02C620.724 741.68 621.444 742.76 621.444 744.44V752H623.724V743.96C623.724 741.44 622.164 739.76 619.404 739.76C617.484 739.76 616.284 740.6 615.564 741.68V740H613.284V752H615.564ZM632.246 752.24C634.982 752.24 636.926 750.632 637.166 748.04H634.886C634.67 749.36 633.71 750.32 632.342 750.32H632.15C629.846 750.32 628.766 748.28 628.766 746C628.766 743.72 629.846 741.68 632.15 741.68H632.342C633.71 741.68 634.67 742.64 634.886 743.96H637.166C636.926 741.368 634.982 739.76 632.246 739.76C628.55 739.76 626.486 742.472 626.486 746C626.486 749.528 628.55 752.24 632.246 752.24ZM644.924 752.24C647.396 752.24 649.484 750.872 649.916 748.448H647.636C647.396 749.72 646.268 750.32 645.092 750.32H644.9C643.436 750.32 641.684 749.096 641.54 746.36H649.94V745.04C649.94 741.92 647.972 739.76 644.852 739.76C642.02 739.76 639.26 741.824 639.26 745.976C639.26 750.176 641.948 752.24 644.924 752.24ZM641.684 744.56C642.116 742.424 643.508 741.68 644.756 741.68H644.948C646.316 741.68 647.564 742.472 647.66 744.56H641.684ZM655.174 752V745.928C655.174 743.528 656.494 742.088 658.654 742.088H659.614V739.88H658.534C656.974 739.88 655.534 740.84 655.054 742.64V740H652.894V752H655.174ZM668.685 752V749.96H666.405C665.685 749.96 665.445 749.72 665.445 749V741.968H668.325V740H665.445V736.112H663.165V740H660.525V741.968H663.165V749.36C663.165 751.04 664.125 752 665.805 752H668.685ZM674.392 752.24C676.312 752.24 677.752 751.16 678.232 750.08C678.232 750.2 678.232 751.4 678.352 752H680.512C680.392 751.16 680.392 750.08 680.392 749.36V744.32C680.392 741.872 678.712 739.76 675.52 739.76C672.808 739.76 670.816 741.272 670.672 743.48H672.952C673.096 742.28 674.176 741.68 675.424 741.68H675.616C677.152 741.68 678.112 742.64 678.112 744.32V744.704L674.8 744.968C672.856 745.136 670.432 745.952 670.432 748.688C670.432 750.728 672.112 752.24 674.392 752.24ZM674.656 750.32C673.528 750.32 672.712 749.576 672.712 748.592C672.712 747.488 673.72 746.816 675.112 746.696L678.112 746.456V747.68C678.112 749.12 676.312 750.32 674.848 750.32H674.656ZM686.278 737.84V735.2H683.758V737.84H686.278ZM686.158 752V740H683.878V752H686.158ZM692.041 752V745.28C692.041 743 693.601 741.68 695.305 741.68H695.497C697.201 741.68 697.921 742.76 697.921 744.44V752H700.201V743.96C700.201 741.44 698.641 739.76 695.881 739.76C693.961 739.76 692.761 740.6 692.041 741.68V740H689.761V752H692.041ZM710.357 752V749.96H708.077C707.357 749.96 707.117 749.72 707.117 749V741.968H709.997V740H707.117V736.112H704.837V740H702.197V741.968H704.837V749.36C704.837 751.04 705.797 752 707.477 752H710.357ZM721.271 740L717.671 748.856L713.927 740H711.503L716.543 751.76V753.44C716.543 754.16 716.303 754.4 715.583 754.4H712.223V756.44H716.183C717.863 756.44 718.703 755.6 718.703 753.92V751.736L723.623 740H721.271Z" fill="white" fill-opacity="0.6"/>
<path d="M234 571.92L225.168 571.92L225.168 565.68C225.168 561.52 222.704 558.48 218.384 558.48C214.064 558.48 211.6 561.52 211.6 565.68L211.6 575.12L234 575.12L234 571.92ZM214.48 571.92L214.48 566.16C214.48 563.28 215.824 561.68 218.384 561.68C220.944 561.68 222.288 563.28 222.288 566.16L222.288 571.92L214.48 571.92ZM234 552.606L225.904 552.606C222.704 552.606 220.784 550.846 220.784 547.966L220.784 546.686L217.84 546.686L217.84 548.126C217.84 550.206 219.12 552.126 221.52 552.766L218 552.766L218 555.646L234 555.646L234 552.606ZM234.32 538.067C234.32 533.747 230.96 530.387 226 530.387C221.04 530.387 217.68 533.747 217.68 538.067C217.68 542.387 221.04 545.747 226 545.747C230.96 545.747 234.32 542.387 234.32 538.067ZM231.76 538.195C231.76 540.787 229.68 542.707 226 542.707C222.32 542.707 220.24 540.787 220.24 538.195L220.24 537.939C220.24 535.347 222.32 533.427 226 533.427C229.68 533.427 231.76 535.347 231.76 537.939L231.76 538.195ZM234.32 518.887C234.32 514.887 231.28 512.007 226 512.007C220.72 512.007 217.68 515.207 217.68 519.207C217.68 521.447 218.8 523.367 220.24 524.167L211.6 524.167L211.6 527.207L234 527.207L234 524.167L231.76 524.167C233.2 523.367 234.32 521.127 234.32 518.887ZM231.76 519.655C231.76 521.927 229.84 524.167 226 524.167C222.16 524.167 220.24 521.927 220.24 519.655L220.24 519.399C220.24 516.967 222.16 515.047 226 515.047C229.84 515.047 231.76 516.967 231.76 519.399L231.76 519.655ZM234.32 504.465C234.32 501.905 232.88 499.985 231.44 499.345C231.6 499.345 233.2 499.345 234 499.185L234 496.305C232.88 496.465 231.44 496.465 230.48 496.465L223.76 496.465C220.496 496.465 217.68 498.705 217.68 502.961C217.68 506.577 219.696 509.233 222.64 509.425L222.64 506.385C221.04 506.193 220.24 504.753 220.24 503.089L220.24 502.833C220.24 500.785 221.52 499.505 223.76 499.505L224.272 499.505L224.624 503.921C224.848 506.513 225.936 509.745 229.584 509.745C232.304 509.745 234.32 507.505 234.32 504.465ZM231.76 504.113C231.76 505.617 230.768 506.705 229.456 506.705C227.984 506.705 227.088 505.361 226.928 503.505L226.608 499.505L228.24 499.505C230.16 499.505 231.76 501.905 231.76 503.857L231.76 504.113ZM234.32 484.136C234.32 480.136 231.28 477.256 226 477.256C220.72 477.256 217.68 480.456 217.68 484.456C217.68 486.696 218.8 488.616 220.24 489.416L211.6 489.416L211.6 492.456L234 492.456L234 489.416L231.76 489.416C233.2 488.616 234.32 486.376 234.32 484.136ZM231.76 484.904C231.76 487.176 229.84 489.416 226 489.416C222.16 489.416 220.24 487.176 220.24 484.904L220.24 484.648C220.24 482.216 222.16 480.296 226 480.296C229.84 480.296 231.76 482.216 231.76 484.648L231.76 484.904ZM215.12 470.834L211.6 470.834L211.6 474.194L215.12 474.194L215.12 470.834ZM234 470.994L218 470.994L218 474.034L234 474.034L234 470.994ZM234 463.79L211.6 463.79L211.6 466.83L234 466.83L234 463.79ZM215.12 456.426L211.6 456.426L211.6 459.786L215.12 459.786L215.12 456.426ZM234 456.586L218 456.586L218 459.626L234 459.626L234 456.586ZM234 443.399L231.28 443.399L231.28 446.439C231.28 447.399 230.96 447.719 230 447.719L220.624 447.719L220.624 443.879L218 443.879L218 447.719L212.816 447.719L212.816 450.759L218 450.759L218 454.279L220.624 454.279L220.624 450.759L230.48 450.759C232.72 450.759 234 449.479 234 447.239L234 443.399ZM218 429.486L229.808 434.286L218 439.278L218 442.51L233.68 435.79L235.92 435.79C236.88 435.79 237.2 436.11 237.2 437.07L237.2 441.55L239.92 441.55L239.92 436.27C239.92 434.03 238.8 432.91 236.56 432.91L233.648 432.91L218 426.35L218 429.486Z" fill="white"/>
<path d="M283 578C283 578 374.98 574.24 428.283 546.806C514.245 502.563 506.418 328 602.802 328C699.186 328 693.458 495.313 777.321 546.806C816.122 570.63 862.565 578 913 578" stroke="white" stroke-width="4" stroke-dasharray="26 26"/>
<path d="M679.586 497.586C678.805 498.367 678.805 499.633 679.586 500.414L692.314 513.142C693.095 513.923 694.361 513.923 695.142 513.142C695.923 512.361 695.923 511.095 695.142 510.314L683.828 499L695.142 487.686C695.923 486.905 695.923 485.639 695.142 484.858C694.361 484.077 693.095 484.077 692.314 484.858L679.586 497.586ZM681 501H721V497H681V501Z" fill="white"/>
<path d="M528.414 500.414C529.195 499.633 529.195 498.367 528.414 497.586L515.686 484.858C514.905 484.077 513.639 484.077 512.858 484.858C512.077 485.639 512.077 486.905 512.858 487.686L524.172 499L512.858 510.314C512.077 511.095 512.077 512.361 512.858 513.142C513.639 513.923 514.905 513.923 515.686 513.142L528.414 500.414ZM487 501H527V497H487V501Z" fill="white"/>
<defs>
<linearGradient id="paint0_linear_663_8214" x1="599" y1="227" x2="526.256" y2="562.214" gradientUnits="userSpaceOnUse">
<stop stop-color="#4D4DFF"/>
<stop offset="1" stop-opacity="0"/>
</linearGradient>
</defs>
</svg>
